<svg width="1570" height="1199" viewBox="0 0 1570 1199" fill="none" xmlns="http://www.w3.org/2000/svg">
<path d="M1458.83 954.251C1449.89 1012.85 1425.67 1068.84 1392.53 1119.65C1386.47 1128.96 1380.09 1138.11 1373.45 1147.06H179.475C173.469 1138.24 167.657 1129.07 162.075 1119.65C128.501 1062.95 103.251 996.832 93.8212 940.401C78.0988 846.283 99.4311 761.549 163.628 687.887C199.345 646.905 243.519 626.404 291.965 603.879C215.505 380.031 450.466 182.448 657.617 118.595C942.529 30.7761 1402.03 93.1268 1417.07 441.88C1420.87 529.877 1403.64 611.431 1342.93 680.308C1344.16 679.996 1345.17 678.037 1346.11 677.241C1441.56 728.713 1473.69 856.824 1458.83 954.251Z" fill="#FFFBE9" fill-opacity="0.1"/>
<path d="M67.1902 1147.06H1472.82V1119.65H67.1902V1147.06Z" fill="#545454"/>
<path d="M468.907 541.171L417.367 549.369C425.948 567.809 422.913 588.157 418.691 606.561C436.588 607.151 454.787 614.465 472.217 610.076C480.82 588.873 476.572 562.561 468.907 541.171Z" fill="#92A32B"/>
<path d="M471.249 535.313L419.711 543.512C428.291 561.952 425.255 582.301 421.032 600.704C438.931 601.295 457.129 608.608 474.56 604.219C483.163 583.016 478.913 556.705 471.249 535.313Z" fill="#BEE41B"/>
<path d="M433.04 558.685C442.928 555.969 452.979 554.647 463.231 554.62C464.489 554.616 464.489 552.664 463.231 552.668C452.811 552.696 442.573 554.041 432.521 556.803C431.308 557.136 431.824 559.019 433.04 558.685Z" fill="#92A32B"/>
<path d="M435.381 566.297C447.628 562.843 460.292 561.56 472.859 559.856C474.103 559.687 473.572 557.807 472.341 557.973C459.772 559.679 447.108 560.961 434.863 564.415C433.653 564.756 434.168 566.639 435.381 566.297Z" fill="#92A32B"/>
<path d="M433.365 573.944C445.12 573.239 456.167 568.747 467.589 566.297C468.82 566.033 468.299 564.152 467.071 564.415C455.828 566.827 444.931 571.299 433.365 571.992C432.115 572.068 432.108 574.02 433.365 573.944Z" fill="#92A32B"/>
<path d="M438.896 579.765C450.976 576.749 463.091 573.865 475.201 570.981C476.425 570.691 475.907 568.808 474.683 569.1C462.571 571.984 450.457 574.865 438.376 577.884C437.156 578.188 437.675 580.071 438.896 579.765Z" fill="#92A32B"/>
<path d="M1035.94 212.311L1082.67 227.903C1071.83 243.753 1071.52 263.173 1072.61 280.967C1055.85 278.753 1037.77 282.756 1022.22 275.976C1017.48 254.9 1025.5 231.052 1035.94 212.311Z" fill="#92A32B"/>
<path d="M1034.66 206.495L1081.4 222.088C1070.56 237.936 1070.24 257.359 1071.33 275.151C1054.57 272.936 1036.5 276.939 1020.94 270.16C1016.2 249.084 1024.22 225.235 1034.66 206.495Z" fill="#FDE427"/>
<path d="M1066.64 234.161C1057.85 230.104 1048.69 227.321 1039.15 225.715C1037.97 225.517 1038.28 223.699 1039.45 223.896C1049.15 225.529 1058.48 228.364 1067.41 232.487C1068.49 232.984 1067.72 234.659 1066.64 234.161Z" fill="#92A32B"/>
<path d="M1063.28 240.889C1052.41 235.781 1040.81 232.632 1029.37 229.104C1028.24 228.755 1029.03 227.085 1030.14 227.431C1041.59 230.959 1053.18 234.108 1064.05 239.216C1065.13 239.72 1064.36 241.395 1063.28 240.889Z" fill="#92A32B"/>
<path d="M1063.98 248.323C1053.14 245.852 1043.55 239.963 1033.29 235.917C1032.18 235.481 1032.96 233.809 1034.06 234.244C1044.16 238.225 1053.62 244.073 1064.28 246.504C1065.43 246.768 1065.14 248.587 1063.98 248.323Z" fill="#92A32B"/>
<path d="M1057.93 252.891C1047.15 248.216 1036.31 243.661 1025.47 239.105C1024.38 238.644 1025.15 236.972 1026.25 237.432C1037.08 241.988 1047.92 246.543 1058.7 251.219C1059.79 251.691 1059.02 253.363 1057.93 252.891Z" fill="#92A32B"/>
<path d="M431.495 308.259L379.956 316.457C388.536 334.897 385.501 355.245 381.277 373.649C399.176 374.24 417.373 381.553 434.805 377.163C443.409 355.961 439.159 329.649 431.495 308.259Z" fill="#16B1B5"/>
<path d="M433.837 302.401L382.299 310.6C390.879 329.04 387.844 349.389 383.62 367.792C401.52 368.383 419.716 375.696 437.147 371.307C436.691 351.321 438.251 325.555 433.837 302.401Z" fill="#46F2F2"/>
<path d="M398.473 328.896C406.084 326.18 413.819 324.857 421.709 324.832C422.68 324.828 422.68 322.876 421.709 322.88C413.691 322.907 405.809 324.253 398.073 327.013C397.14 327.347 397.536 329.229 398.473 328.896Z" fill="#16B1B5"/>
<path d="M400.275 336.508C409.7 333.055 419.448 331.772 429.121 330.067C430.077 329.899 429.668 328.019 428.721 328.184C419.048 329.889 409.3 331.172 399.876 334.627C398.945 334.967 399.341 336.851 400.275 336.508Z" fill="#16B1B5"/>
<path d="M398.724 344.156C407.769 343.451 416.272 338.959 425.065 336.508C426.012 336.244 425.609 334.363 424.664 334.627C416.012 337.037 407.625 341.509 398.724 342.204C397.76 342.279 397.756 344.231 398.724 344.156Z" fill="#16B1B5"/>
<path d="M402.98 349.977C412.277 346.96 421.6 344.077 430.923 341.193C431.867 340.901 431.467 339.02 430.524 339.311C421.201 342.196 411.877 345.079 402.58 348.095C401.64 348.4 402.039 350.283 402.98 349.977Z" fill="#16B1B5"/>
<path d="M547.709 309.283L496.171 317.483C504.751 335.921 501.715 356.271 497.492 374.673C515.391 375.264 533.588 382.579 551.02 378.188C559.624 356.985 555.373 330.675 547.709 309.283Z" fill="#92A32B"/>
<path d="M550.052 303.427L498.513 311.625C507.092 330.064 504.057 350.415 499.835 368.817C517.733 369.408 535.93 376.723 553.361 372.332C561.966 351.129 557.716 324.819 550.052 303.427Z" fill="#BEE41B"/>
<path d="M511.841 326.797C521.732 324.083 531.781 322.76 542.033 322.733C543.293 322.729 543.293 320.777 542.033 320.781C531.613 320.808 521.375 322.155 511.323 324.916C510.112 325.248 510.627 327.132 511.841 326.797Z" fill="#92A32B"/>
<path d="M514.185 334.411C526.429 330.956 539.093 329.673 551.661 327.969C552.905 327.8 552.373 325.92 551.143 326.087C538.575 327.791 525.911 329.073 513.665 332.528C512.456 332.869 512.971 334.752 514.185 334.411Z" fill="#92A32B"/>
<path d="M512.168 342.057C523.921 341.352 534.969 336.861 546.392 334.411C547.623 334.145 547.1 332.264 545.872 332.528C534.632 334.94 523.733 339.412 512.168 340.105C510.917 340.18 510.911 342.133 512.168 342.057Z" fill="#92A32B"/>
<path d="M517.697 347.879C529.779 344.861 541.892 341.979 554.004 339.095C555.229 338.804 554.709 336.921 553.485 337.212C541.373 340.096 529.259 342.979 517.18 345.996C515.959 346.301 516.476 348.184 517.697 347.879Z" fill="#92A32B"/>
<path d="M369.953 487.988L325.443 490.331C331.295 509.044 323.971 530.825 331.503 549.891C343.843 548.389 360.117 549.34 372.119 545.179C373.035 527.928 375.565 503.976 369.953 487.988Z" fill="#D3B81A"/>
<path d="M373.468 483.303L328.956 485.645C334.808 504.359 327.484 526.14 335.017 545.207C347.356 543.704 363.632 544.655 375.633 540.495C376.549 523.243 379.079 499.291 373.468 483.303Z" fill="#FDE427"/>
<path d="M338.027 504.217C340.623 505.321 344.348 504.176 346.972 503.692C350.979 502.951 354.964 501.901 359.013 501.421C360.248 501.276 360.263 499.323 359.013 499.471C355.435 499.893 351.908 500.737 348.377 501.439C346.553 501.8 344.725 502.14 342.887 502.405C341.825 502.557 340.052 502.973 339.011 502.531C337.865 502.044 336.871 503.724 338.027 504.217Z" fill="#D3B81A"/>
<path d="M335.589 511.376C346.623 510.112 357.379 507.277 368.057 504.315C369.268 503.979 368.752 502.095 367.537 502.433C357.036 505.345 346.441 508.181 335.589 509.425C334.355 509.567 334.341 511.52 335.589 511.376Z" fill="#D3B81A"/>
<path d="M339.104 516.647C345.155 515.835 350.989 513.856 356.931 512.513C358.159 512.235 357.639 510.353 356.412 510.631C350.649 511.933 344.972 513.908 339.104 514.695C337.875 514.86 337.86 516.815 339.104 516.647Z" fill="#D3B81A"/>
<path d="M340.603 519.677C341.367 520.896 343.176 520.747 344.412 520.661C346.984 520.484 349.545 519.903 352.053 519.332C357.445 518.104 362.807 516.596 368.057 514.856C369.247 514.461 368.737 512.576 367.537 512.973C363.128 514.436 358.639 515.692 354.133 516.824C351.579 517.468 349.003 518.053 346.4 518.471C345.811 518.564 342.567 519.135 342.289 518.692C341.623 517.628 339.933 518.607 340.603 519.677Z" fill="#D3B81A"/>
<path d="M342.36 521.62C341.759 522.564 341.179 522.66 341.056 523.869C341.003 524.397 341.54 524.848 342.032 524.845C348.539 524.801 354.961 523.671 361.029 521.297C362.189 520.844 361.685 518.955 360.511 519.415C354.596 521.728 348.377 522.851 342.032 522.893C342.357 523.219 342.683 523.544 343.008 523.869C343.035 523.597 343.879 522.867 344.045 522.605C344.724 521.54 343.033 520.561 342.36 521.62Z" fill="#D3B81A"/>
<path d="M348.567 527.055C351.809 529.223 356.517 528.384 360.185 528.359C361.443 528.351 361.444 526.397 360.185 526.407C356.907 526.429 352.436 527.297 349.552 525.369C348.501 524.667 347.527 526.359 348.567 527.055Z" fill="#D3B81A"/>
<path d="M1230.16 395.249L1185.65 397.591C1191.5 416.305 1184.18 438.087 1191.71 457.152C1204.05 455.651 1220.33 456.601 1232.33 452.44C1233.24 435.189 1235.77 411.237 1230.16 395.249Z" fill="#D3B81A"/>
<path d="M1233.68 390.563L1189.16 392.907C1195.02 411.619 1187.69 433.401 1195.23 452.468C1207.56 450.965 1223.84 451.916 1235.84 447.755C1236.76 430.503 1239.29 406.552 1233.68 390.563Z" fill="#FDE427"/>
<path d="M1198.23 411.477C1200.83 412.583 1204.55 411.438 1207.18 410.952C1211.19 410.212 1215.17 409.163 1219.22 408.683C1220.46 408.536 1220.47 406.584 1219.22 406.731C1215.64 407.155 1212.12 407.998 1208.58 408.699C1206.76 409.062 1204.93 409.401 1203.09 409.667C1202.03 409.819 1200.26 410.235 1199.22 409.792C1198.07 409.305 1197.08 410.985 1198.23 411.477Z" fill="#D3B81A"/>
<path d="M1195.8 418.639C1206.83 417.373 1217.59 414.537 1228.27 411.576C1229.48 411.24 1228.96 409.356 1227.75 409.693C1217.25 412.607 1206.65 415.441 1195.8 416.685C1194.56 416.828 1194.55 418.781 1195.8 418.639Z" fill="#D3B81A"/>
<path d="M1199.31 423.908C1205.36 423.096 1211.2 421.117 1217.14 419.775C1218.37 419.497 1217.85 417.615 1216.62 417.891C1210.86 419.195 1205.18 421.168 1199.31 421.956C1198.08 422.12 1198.07 424.075 1199.31 423.908Z" fill="#D3B81A"/>
<path d="M1200.81 426.939C1201.58 428.157 1203.38 428.008 1204.62 427.923C1207.19 427.745 1209.75 427.164 1212.26 426.592C1217.65 425.364 1223.02 423.857 1228.27 422.116C1229.45 421.723 1228.94 419.837 1227.75 420.235C1223.33 421.696 1218.85 422.952 1214.34 424.085C1211.79 424.728 1209.21 425.313 1206.61 425.731C1206.02 425.825 1202.77 426.395 1202.5 425.953C1201.83 424.889 1200.14 425.868 1200.81 426.939Z" fill="#D3B81A"/>
<path d="M1202.57 428.881C1201.97 429.824 1201.39 429.92 1201.26 431.131C1201.21 431.659 1201.75 432.111 1202.24 432.107C1208.75 432.063 1215.17 430.932 1221.24 428.557C1222.4 428.105 1221.89 426.216 1220.72 426.676C1214.8 428.989 1208.59 430.111 1202.24 430.155C1202.57 430.48 1202.89 430.805 1203.21 431.131C1203.24 430.859 1204.09 430.128 1204.25 429.867C1204.93 428.801 1203.24 427.823 1202.57 428.881Z" fill="#D3B81A"/>
<path d="M1208.77 434.315C1212.02 436.484 1216.73 435.645 1220.39 435.62C1221.65 435.611 1221.65 433.659 1220.39 433.668C1217.11 433.691 1212.64 434.557 1209.76 432.629C1208.71 431.928 1207.73 433.62 1208.77 434.315Z" fill="#D3B81A"/>
<path d="M764.495 419.24L719.983 421.583C725.836 440.296 718.512 462.079 726.044 481.144C738.383 479.643 754.659 480.592 766.66 476.432C767.577 459.18 770.105 435.229 764.495 419.24Z" fill="#D3B81A"/>
<path d="M768.009 414.555L723.497 416.897C729.351 435.611 722.027 457.393 729.559 476.459C741.897 474.956 758.173 475.907 770.175 471.747C771.091 454.496 773.62 430.544 768.009 414.555Z" fill="#FDE427"/>
<path d="M732.567 435.469C735.164 436.575 738.889 435.428 741.513 434.944C745.521 434.203 749.504 433.153 753.555 432.675C754.789 432.528 754.804 430.575 753.555 430.723C749.975 431.147 746.449 431.989 742.917 432.691C741.095 433.053 739.267 433.393 737.427 433.657C736.365 433.809 734.593 434.227 733.552 433.783C732.408 433.296 731.413 434.977 732.567 435.469Z" fill="#D3B81A"/>
<path d="M730.132 442.629C741.163 441.364 751.92 438.529 762.597 435.568C763.809 435.231 763.295 433.348 762.08 433.685C751.579 436.599 740.983 439.433 730.132 440.677C728.896 440.819 728.883 442.772 730.132 442.629Z" fill="#D3B81A"/>
<path d="M733.644 447.9C739.695 447.087 745.529 445.109 751.472 443.765C752.699 443.488 752.179 441.607 750.953 441.884C745.192 443.185 739.513 445.16 733.644 445.947C732.417 446.112 732.401 448.067 733.644 447.9Z" fill="#D3B81A"/>
<path d="M735.144 450.929C735.908 452.148 737.716 451.999 738.952 451.913C741.527 451.736 744.085 451.156 746.595 450.584C751.987 449.356 757.349 447.848 762.597 446.108C763.788 445.713 763.277 443.828 762.08 444.225C757.668 445.688 753.18 446.944 748.675 448.077C746.119 448.72 743.543 449.305 740.94 449.723C740.353 449.817 737.108 450.388 736.831 449.944C736.164 448.881 734.473 449.86 735.144 450.929Z" fill="#D3B81A"/>
<path d="M736.901 452.872C736.301 453.816 735.72 453.912 735.596 455.121C735.543 455.649 736.083 456.101 736.573 456.097C743.081 456.055 749.503 454.923 755.571 452.549C756.729 452.096 756.227 450.208 755.052 450.667C749.137 452.981 742.919 454.103 736.573 454.145C736.899 454.471 737.224 454.796 737.549 455.121C737.577 454.849 738.419 454.12 738.587 453.857C739.265 452.792 737.575 451.813 736.901 452.872Z" fill="#D3B81A"/>
<path d="M743.107 458.307C746.352 460.475 751.059 459.636 754.727 459.611C755.984 459.603 755.985 457.651 754.727 457.66C751.448 457.681 746.976 458.549 744.092 456.621C743.043 455.919 742.067 457.611 743.107 458.307Z" fill="#D3B81A"/>
<path d="M476.668 496.085C470.751 480.04 465.472 463.484 461.363 446.244C451.587 458.671 415.34 460.387 415.34 460.387C423.188 477.511 430.665 499.504 430.673 517.912C446.179 512.435 462.173 504.317 476.668 496.085Z" fill="#AA3C6E"/>
<path d="M477.737 490.957C471.821 474.912 466.543 458.356 462.432 441.116C452.655 453.543 416.409 455.259 416.409 455.259C424.256 472.383 431.736 494.376 431.744 512.785C447.247 507.307 463.243 499.189 477.737 490.957Z" fill="#FF5593"/>
<path d="M435.145 467.709C438.756 469.033 442.991 467.465 446.349 466.103C450.452 464.439 454.327 462.243 458.097 459.939C459.171 459.284 458.195 457.593 457.116 458.251C453.863 460.237 450.54 462.107 447.069 463.685C443.805 465.169 439.276 467.151 435.668 465.829C434.483 465.393 433.973 467.28 435.145 467.709Z" fill="#AA3C6E"/>
<path d="M437.991 475.54C442.22 473.692 446.772 472.683 451.037 470.921C452.184 470.449 451.7 468.556 450.54 469.035C446.111 470.863 441.401 471.933 437.008 473.852C435.857 474.355 436.849 476.039 437.991 475.54Z" fill="#AA3C6E"/>
<path d="M437.269 478.051C442.305 480.168 448.141 477.116 452.8 475.303C453.959 474.851 453.472 472.959 452.301 473.415C447.992 475.092 442.444 478.125 437.792 476.169C436.632 475.683 436.127 477.571 437.269 478.051Z" fill="#AA3C6E"/>
<path d="M435.167 487.792C442.947 483.251 451.779 481.001 460.073 477.623C461.223 477.155 460.74 475.26 459.576 475.735C451.123 479.179 442.116 481.473 434.185 486.104C433.099 486.739 434.076 488.428 435.167 487.792Z" fill="#AA3C6E"/>
<path d="M440.532 493.075C445.947 490.984 451.367 488.911 456.596 486.377C457.728 485.828 456.741 484.143 455.613 484.689C450.543 487.147 445.287 489.16 440.033 491.187C438.872 491.635 439.359 493.527 440.532 493.075Z" fill="#AA3C6E"/>
<path d="M442.535 496.489C444.468 497.319 447.164 495.717 448.884 494.944C451.888 493.592 454.807 492.015 457.641 490.34C458.724 489.701 457.745 488.012 456.66 488.653C454.369 490.005 452.021 491.26 449.636 492.436C448.369 493.059 447.085 493.648 445.767 494.153C445.313 494.327 443.868 494.953 443.519 494.803C442.376 494.312 441.379 495.993 442.535 496.489Z" fill="#AA3C6E"/>
<path d="M439.343 356.835C440.1 346.443 438.879 335.639 436.509 325.304C436.06 317.585 435.259 309.859 433.837 302.401L430.619 302.913C439.627 300.816 448.728 297.452 452.932 292.109C457.041 309.348 462.321 325.904 468.237 341.949C459.04 347.172 449.24 352.348 439.343 356.835ZM407.095 306.656C407.032 306.52 406.971 306.385 406.909 306.251C406.909 306.251 408.976 306.153 412.256 305.835L407.095 306.656Z" fill="#73CDC0"/>
<path d="M437.052 357.86C437.071 347.592 437.159 336.457 436.509 325.304C438.879 335.639 440.1 346.443 439.343 356.835C438.58 357.18 437.816 357.523 437.052 357.86Z" fill="#0A9195"/>
<path d="M422.244 363.777C422.241 357.667 421.416 351.163 420.027 344.572C423.657 343.441 427.291 342.317 430.923 341.193C431.799 340.923 431.516 339.28 430.717 339.28C430.656 339.28 430.592 339.289 430.524 339.311C426.888 340.436 423.252 341.561 419.616 342.693C419.308 341.329 418.976 339.964 418.624 338.599C420.763 337.836 422.904 337.111 425.065 336.508C425.949 336.261 425.656 334.601 424.841 334.601C424.785 334.601 424.725 334.609 424.664 334.627C422.476 335.236 420.304 335.979 418.137 336.757C417.724 335.235 417.287 333.716 416.829 332.201C420.92 331.435 425.027 330.788 429.121 330.067C430.036 329.905 429.7 328.173 428.839 328.173C428.8 328.173 428.761 328.177 428.721 328.184C424.569 328.916 420.405 329.569 416.257 330.351C415.715 328.629 415.147 326.916 414.556 325.217C416.927 324.968 419.311 324.84 421.709 324.832C422.679 324.828 422.68 322.88 421.712 322.88C421.711 322.88 421.711 322.88 421.709 322.88C419.088 322.888 416.483 323.039 413.891 323.332C411.795 317.491 409.464 311.853 407.095 306.656L412.256 305.835C416.804 305.393 423.683 304.529 430.619 302.913L433.837 302.401C435.259 309.859 436.06 317.585 436.509 325.304C437.159 336.457 437.071 347.592 437.052 357.86C432.109 360.043 427.152 362.043 422.244 363.777Z" fill="#20C6C8"/>
<path d="M414.556 325.217C414.337 324.587 414.116 323.959 413.891 323.332C416.483 323.039 419.088 322.888 421.709 322.88C421.711 322.88 421.711 322.88 421.712 322.88C422.68 322.88 422.679 324.828 421.709 324.832C419.311 324.84 416.927 324.968 414.556 325.217Z" fill="#0A9195"/>
<path d="M416.829 332.201C416.641 331.583 416.452 330.967 416.257 330.351C420.405 329.569 424.569 328.916 428.721 328.184C428.761 328.177 428.8 328.173 428.839 328.173C429.7 328.173 430.036 329.905 429.121 330.067C425.027 330.788 420.92 331.435 416.829 332.201Z" fill="#0A9195"/>
<path d="M418.624 338.599C418.467 337.985 418.303 337.369 418.137 336.757C420.304 335.979 422.476 335.236 424.664 334.627C424.725 334.609 424.785 334.601 424.841 334.601C425.656 334.601 425.949 336.261 425.065 336.508C422.904 337.111 420.763 337.836 418.624 338.599Z" fill="#0A9195"/>
<path d="M420.027 344.572C419.895 343.947 419.757 343.32 419.616 342.693C423.252 341.561 426.888 340.436 430.524 339.311C430.592 339.289 430.656 339.28 430.717 339.28C431.516 339.28 431.799 340.923 430.923 341.193C427.291 342.317 423.657 343.441 420.027 344.572Z" fill="#0A9195"/>
<path d="M469.307 336.821C463.391 320.776 458.112 304.22 454.003 286.98C420.536 297.076 406.909 306.251 406.909 306.251C414.756 323.375 423.305 340.24 423.312 358.648C438.817 353.169 454.812 345.052 469.307 336.821Z" fill="#FF5593"/>
<path d="M426.716 313.573C430.327 314.897 434.561 313.329 437.919 311.967C442.021 310.301 445.897 308.105 449.668 305.803C450.74 305.147 449.763 303.456 448.687 304.115C445.433 306.101 442.111 307.971 438.639 309.549C435.373 311.033 430.845 313.015 427.239 311.692C426.053 311.257 425.543 313.143 426.716 313.573Z" fill="#AA3C6E"/>
<path d="M429.56 321.404C433.791 319.556 438.341 318.547 442.608 316.785C443.753 316.312 443.271 314.419 442.109 314.897C437.681 316.727 432.972 317.797 428.579 319.716C427.427 320.219 428.417 321.903 429.56 321.404Z" fill="#AA3C6E"/>
<path d="M428.839 323.915C433.876 326.032 439.712 322.979 444.369 321.165C445.528 320.715 445.043 318.821 443.871 319.277C439.563 320.956 434.013 323.989 429.361 322.033C428.2 321.545 427.696 323.435 428.839 323.915Z" fill="#AA3C6E"/>
<path d="M426.736 333.656C434.517 329.113 443.349 326.865 451.643 323.485C452.792 323.017 452.308 321.124 451.145 321.599C442.692 325.043 433.685 327.337 425.753 331.968C424.669 332.601 425.647 334.291 426.736 333.656Z" fill="#AA3C6E"/>
<path d="M432.101 338.937C437.517 336.848 442.937 334.773 448.165 332.24C449.299 331.692 448.311 330.007 447.184 330.553C442.112 333.011 436.857 335.024 431.603 337.051C430.443 337.499 430.928 339.389 432.101 338.937Z" fill="#AA3C6E"/>
<path d="M434.105 342.353C436.037 343.181 438.733 341.58 440.455 340.805C443.457 339.455 446.377 337.879 449.212 336.204C450.295 335.565 449.315 333.875 448.229 334.516C445.939 335.868 443.591 337.124 441.204 338.3C439.94 338.923 438.655 339.512 437.337 340.016C436.884 340.191 435.437 340.816 435.087 340.667C433.945 340.175 432.949 341.857 434.105 342.353Z" fill="#AA3C6E"/>
<path d="M616.159 254.272C614.532 237.248 613.651 219.893 614.077 202.176C601.453 211.696 565.969 204.108 565.969 204.108C569.187 222.667 570.807 245.84 566.119 263.641C582.508 262.301 600.044 258.532 616.159 254.272Z" fill="#AA3C6E"/>
<path d="M618.501 249.585C616.875 232.561 615.995 215.208 616.419 197.491C603.796 207.009 568.311 199.423 568.311 199.423C571.529 217.981 573.149 241.155 568.461 258.956C584.851 257.615 602.387 253.847 618.501 249.585Z" fill="#FF5593"/>
<path d="M583.251 216.241C586.404 218.443 590.9 218.007 594.493 217.545C598.884 216.983 603.192 215.848 607.427 214.583C608.631 214.224 608.117 212.34 606.908 212.7C603.255 213.792 599.565 214.752 595.805 215.392C592.271 215.995 587.387 216.755 584.236 214.556C583.201 213.833 582.228 215.527 583.251 216.241Z" fill="#AA3C6E"/>
<path d="M584.003 224.537C588.565 223.831 593.223 224.016 597.799 223.401C599.027 223.236 599.043 221.283 597.799 221.449C593.048 222.088 588.221 221.92 583.484 222.656C582.244 222.848 582.772 224.729 584.003 224.537Z" fill="#AA3C6E"/>
<path d="M582.665 226.781C586.995 230.115 593.417 228.652 598.383 228.087C599.62 227.945 599.633 225.992 598.383 226.135C593.789 226.657 587.649 228.175 583.651 225.097C582.653 224.329 581.683 226.025 582.665 226.781Z" fill="#AA3C6E"/>
<path d="M578.147 235.664C586.829 233.257 595.943 233.337 604.824 232.185C606.055 232.027 606.071 230.072 604.824 230.233C595.772 231.408 586.477 231.329 577.628 233.781C576.417 234.117 576.932 236 578.147 235.664Z" fill="#AA3C6E"/>
<path d="M581.987 242.14C587.756 241.501 593.527 240.879 599.228 239.764C600.464 239.521 599.939 237.64 598.709 237.881C593.179 238.964 587.584 239.569 581.987 240.188C580.751 240.325 580.737 242.279 581.987 242.14Z" fill="#AA3C6E"/>
<path d="M583.053 245.953C584.711 247.249 587.725 246.388 589.587 246.079C592.835 245.539 596.061 244.757 599.228 243.863C600.437 243.52 599.923 241.637 598.709 241.98C596.149 242.704 593.559 243.319 590.952 243.845C589.569 244.125 588.177 244.368 586.775 244.52C586.292 244.572 584.735 244.808 584.433 244.573C583.455 243.808 582.063 245.179 583.053 245.953Z" fill="#AA3C6E"/>
<path d="M1126.29 352.723C1128.93 335.825 1132.37 318.792 1137.16 301.731C1122.57 307.833 1090.07 291.704 1090.07 291.704C1088.6 310.483 1084.43 333.337 1075.49 349.425C1091.7 352.18 1109.62 352.865 1126.29 352.723Z" fill="#16B1B5"/>
<path d="M1129.72 348.763C1132.36 331.865 1135.79 314.833 1140.59 297.771C1121.35 293.252 1093.5 287.744 1093.5 287.744C1092.03 306.523 1087.86 329.377 1078.92 345.465C1095.13 348.219 1113.05 348.905 1129.72 348.763Z" fill="#46F2F2"/>
<path d="M1103.81 307.735C1106.32 310.648 1110.79 311.337 1114.38 311.78C1118.78 312.321 1123.23 312.287 1127.65 312.108C1128.9 312.056 1128.87 310.105 1127.61 310.156C1123.8 310.309 1119.99 310.327 1116.19 310.017C1112.61 309.727 1107.69 309.256 1105.18 306.345C1104.36 305.389 1103 306.789 1103.81 307.735Z" fill="#16B1B5"/>
<path d="M1102.49 315.96C1107.08 316.403 1111.55 317.735 1116.14 318.271C1117.37 318.416 1117.87 316.527 1116.62 316.38C1111.86 315.823 1107.22 314.468 1102.45 314.008C1101.2 313.888 1101.25 315.841 1102.49 315.96Z" fill="#16B1B5"/>
<path d="M1100.64 317.804C1104.01 322.104 1110.59 322.275 1115.55 322.955C1116.78 323.125 1117.27 321.235 1116.03 321.064C1111.45 320.435 1105.12 320.385 1102.01 316.415C1101.23 315.423 1099.87 316.828 1100.64 317.804Z" fill="#16B1B5"/>
<path d="M1094.06 325.292C1103.07 325.108 1111.88 327.439 1120.77 328.52C1122 328.669 1122.5 326.78 1121.25 326.629C1112.19 325.527 1103.21 323.152 1094.03 323.34C1092.77 323.365 1092.8 325.319 1094.06 325.292Z" fill="#16B1B5"/>
<path d="M1096.18 332.517C1101.93 333.325 1107.68 334.149 1113.47 334.479C1114.73 334.549 1114.69 332.597 1113.44 332.527C1107.81 332.207 1102.24 331.409 1096.66 330.625C1095.43 330.452 1094.94 332.341 1096.18 332.517Z" fill="#16B1B5"/>
<path d="M1096.27 336.475C1097.56 338.14 1100.69 338.052 1102.57 338.212C1105.85 338.492 1109.17 338.533 1112.46 338.449C1113.72 338.417 1113.69 336.465 1112.42 336.497C1109.77 336.565 1107.1 336.521 1104.45 336.387C1103.04 336.316 1101.63 336.205 1100.23 336.005C1099.75 335.937 1098.18 335.781 1097.95 335.48C1097.19 334.496 1095.5 335.48 1096.27 336.475Z" fill="#16B1B5"/>
<path d="M743.371 370.32C743.34 370.32 743.433 370.205 743.651 369.976L743.745 369.96L743.728 370.067C743.517 370.235 743.399 370.32 743.371 370.32Z" fill="#73CDC0"/>
<path d="M803.272 375.497C795.164 375.497 786.536 373.919 777.927 372.341C769.316 370.763 760.723 369.185 752.677 369.185C749.611 369.185 746.624 369.415 743.745 369.96C749.461 338.755 749.329 304.848 747.711 273.361C746.201 244.007 747.255 204.753 737.367 177.035L752.083 177.341C752.435 177.263 752.8 177.22 753.173 177.22C753.311 177.22 753.449 177.227 753.589 177.237C753.891 177.261 754.18 177.316 754.461 177.391L774.265 177.803C782.44 177.061 790.948 176.929 799.429 176.929C801.783 176.929 804.136 176.94 806.477 176.951C808.82 176.96 811.153 176.971 813.469 176.971C816.135 176.971 818.776 176.957 821.383 176.915C828.409 176.8 835.575 176.652 842.772 176.652C848.645 176.652 854.539 176.751 860.395 177.044C860.523 177.036 860.652 177.031 860.783 177.031C860.9 177.031 861.017 177.035 861.136 177.044C861.309 177.057 861.48 177.081 861.649 177.113C866.843 177.399 872.003 177.84 877.087 178.513C876.197 207.511 875.871 236.657 873.512 265.671C871.959 284.769 871.457 304.307 868.811 323.283C866.724 338.245 861.021 353.367 860.495 368.363C843.407 371.601 823.48 374.871 805.195 375.467C804.557 375.487 803.916 375.497 803.272 375.497Z" fill="#73CDC0"/>
<path d="M758.435 361.037L758.445 360.931L758.352 360.955C757.981 361.412 758.009 361.439 758.435 361.037Z" fill="white"/>
<path d="M879.307 246.441C879.303 217.332 877.257 188.256 875.789 159.283C857.408 158.351 838.309 160.435 820.139 162.215C804.909 163.707 788.409 164.3 773.251 166.928L736.409 169.161C748.519 195.984 750.659 235.195 754.548 264.329C758.719 295.58 761.607 329.364 758.445 360.931C776.672 355.908 800.516 363.669 820.139 361.425C838.315 359.345 857.911 354.469 874.677 349.852C873.983 334.863 878.439 319.328 879.304 304.245C880.399 285.117 879.311 265.604 879.307 246.441Z" fill="white"/>
<path d="M777.43 210.789C782.473 212.209 788.124 210.491 792.936 208.96C799.262 206.948 805.309 204.304 811.681 202.389C827.198 197.729 843.166 194.361 859.45 195.1C861.25 195.183 861.242 192.391 859.45 192.309C843.974 191.607 828.777 194.581 813.961 198.812C807.585 200.633 801.512 202.924 795.304 205.2C790.221 207.063 783.625 209.633 778.173 208.099C776.437 207.609 775.701 210.303 777.43 210.789Z" fill="#D7E0E0"/>
<path d="M777.629 225.404C802.616 210.985 831.711 202.208 860.328 199.035C862.097 198.839 862.116 196.047 860.328 196.244C831.203 199.473 801.663 208.313 776.22 222.993C774.661 223.892 776.067 226.305 777.629 225.404Z" fill="#D7E0E0"/>
<path d="M770.605 233.273C794.373 222.577 821.065 222.26 845.775 214.724C847.491 214.2 846.757 211.505 845.032 212.032C820.063 219.648 793.225 220.052 769.196 230.863C767.557 231.6 768.977 234.004 770.605 233.273Z" fill="#D7E0E0"/>
<path d="M782.563 236.364C804.559 233.407 826.556 230.429 848.409 226.528C850.179 226.212 849.425 223.523 847.665 223.836C825.813 227.737 803.816 230.716 781.821 233.673C780.044 233.912 780.804 236.601 782.563 236.364Z" fill="#D7E0E0"/>
<path d="M780.943 250.136C784.508 251.056 788.336 250.479 791.905 249.884C797.517 248.949 803.028 247.372 808.481 245.78C819.395 242.596 830.199 238.507 841.385 236.364C843.151 236.027 842.401 233.336 840.643 233.673C830.195 235.673 820.069 239.404 809.899 242.451C804.504 244.067 799.075 245.604 793.557 246.744C789.812 247.516 785.475 248.423 781.685 247.444C779.941 246.995 779.201 249.687 780.943 250.136Z" fill="#D7E0E0"/>
<path d="M786.583 261.005C801.12 262.043 816.147 258.172 829.972 254.071C831.693 253.559 830.96 250.865 829.229 251.379C815.617 255.417 800.895 259.235 786.583 258.215C784.785 258.087 784.797 260.879 786.583 261.005Z" fill="#D7E0E0"/>
<path d="M794.373 271.417C799.24 276.475 809.403 273.6 815.169 272.153C823.041 270.177 830.92 267.359 838.205 263.767C839.82 262.971 838.405 260.563 836.799 261.356C830.303 264.559 823.343 266.992 816.377 268.943C812.461 270.04 808.447 270.936 804.381 271.22C801.78 271.401 798.305 271.479 796.348 269.444C795.097 268.144 793.128 270.12 794.373 271.417Z" fill="#D7E0E0"/>
<path d="M809.916 286.531C816.776 288.6 824.114 287.757 831.088 286.785C839.35 285.636 847.564 283.701 855.938 283.629C857.738 283.615 857.74 280.823 855.938 280.839C848.501 280.903 841.145 282.403 833.825 283.569C826.305 284.769 818.105 286.085 810.657 283.839C808.929 283.319 808.196 286.013 809.916 286.531Z" fill="#D7E0E0"/>
<path d="M779.928 306.204C804.237 299.024 830.445 302.545 854.555 294.4C856.251 293.827 855.523 291.131 853.811 291.709C829.711 299.852 803.499 296.331 779.188 303.513C777.465 304.021 778.199 306.716 779.928 306.204Z" fill="#D7E0E0"/>
<path d="M790.972 323.96C810.353 322.565 827.685 311.393 847.16 310.189C848.948 310.079 848.959 307.287 847.16 307.397C837.491 307.996 828.177 310.927 819.021 313.904C809.913 316.865 800.604 320.476 790.972 321.168C789.188 321.297 789.175 324.089 790.972 323.96Z" fill="#D7E0E0"/>
<path d="M798.764 326.496C797.585 327.483 796.285 327.473 795.771 329.079C795.52 329.864 796.223 330.965 797.117 330.845C811.267 328.961 825.719 330.613 839.629 326.861C841.364 326.392 840.628 323.7 838.887 324.169C825.225 327.855 811.016 326.203 797.117 328.055C797.565 328.643 798.015 329.232 798.463 329.821C798.528 329.616 800.403 328.751 800.737 328.469C802.119 327.312 800.133 325.348 798.764 326.496Z" fill="#D7E0E0"/>
<path d="M819.572 334.729C825.289 336.975 832.104 334.705 837.873 333.747C839.645 333.452 838.891 330.763 837.131 331.056C831.829 331.937 825.555 334.097 820.313 332.04C818.637 331.38 817.917 334.08 819.572 334.729Z" fill="#D7E0E0"/>
<path d="M757.62 173.069C757.62 175.843 755.371 178.092 752.596 178.092C749.821 178.092 747.573 175.843 747.573 173.069C747.573 170.295 749.821 168.045 752.596 168.045C755.371 168.045 757.62 170.295 757.62 173.069Z" fill="#FF1717"/>
<path d="M864.795 164.139C864.795 166.912 862.544 169.161 859.771 169.161C856.996 169.161 854.747 166.912 854.747 164.139C854.747 161.363 856.996 159.113 859.771 159.113C862.544 159.113 864.795 161.363 864.795 164.139Z" fill="#579334"/>
<path d="M989.073 353.071C987.445 336.047 986.565 318.693 986.989 300.975C974.365 310.495 938.881 302.907 938.881 302.907C942.1 321.467 943.72 344.64 939.031 362.441C955.42 361.1 972.957 357.332 989.073 353.071Z" fill="#AA3C6E"/>
<path d="M991.416 348.385C989.788 331.361 988.908 314.007 989.333 296.289C976.707 305.809 941.224 298.223 941.224 298.223C944.443 316.78 946.063 339.955 941.373 357.756C957.763 356.415 975.3 352.647 991.416 348.385Z" fill="#FF5593"/>
<path d="M956.164 315.041C959.317 317.243 963.812 316.805 967.407 316.345C971.797 315.781 976.105 314.648 980.34 313.383C981.543 313.023 981.029 311.139 979.82 311.5C976.169 312.592 972.479 313.551 968.719 314.192C965.185 314.793 960.3 315.555 957.149 313.355C956.115 312.632 955.139 314.327 956.164 315.041Z" fill="#AA3C6E"/>
<path d="M956.916 323.337C961.477 322.629 966.137 322.816 970.711 322.201C971.939 322.036 971.956 320.083 970.711 320.249C965.963 320.888 961.135 320.72 956.397 321.455C955.156 321.647 955.685 323.528 956.916 323.337Z" fill="#AA3C6E"/>
<path d="M955.579 325.581C959.909 328.915 966.329 327.451 971.296 326.887C972.532 326.745 972.545 324.792 971.296 324.933C966.701 325.457 960.563 326.973 956.564 323.896C955.567 323.128 954.596 324.825 955.579 325.581Z" fill="#AA3C6E"/>
<path d="M951.061 334.464C959.743 332.056 968.856 332.137 977.739 330.985C978.969 330.825 978.983 328.871 977.739 329.032C968.685 330.207 959.391 330.128 950.541 332.581C949.331 332.917 949.845 334.8 951.061 334.464Z" fill="#AA3C6E"/>
<path d="M954.901 340.94C960.669 340.301 966.44 339.677 972.141 338.563C973.376 338.321 972.852 336.44 971.623 336.68C966.092 337.763 960.497 338.368 954.901 338.988C953.663 339.124 953.649 341.079 954.901 340.94Z" fill="#AA3C6E"/>
<path d="M955.967 344.752C957.624 346.048 960.639 345.187 962.5 344.877C965.748 344.337 968.973 343.557 972.141 342.663C973.352 342.32 972.837 340.436 971.623 340.779C969.064 341.503 966.472 342.117 963.864 342.645C962.481 342.925 961.091 343.167 959.688 343.319C959.204 343.371 957.647 343.608 957.347 343.372C956.367 342.607 954.975 343.979 955.967 344.752Z" fill="#AA3C6E"/>
<path d="M355.099 460.795C353.472 443.771 352.591 426.417 353.016 408.699C340.392 418.22 304.908 410.631 304.908 410.631C308.127 429.191 309.747 452.364 305.057 470.167C321.447 468.824 338.983 465.056 355.099 460.795Z" fill="#AA3C6E"/>
<path d="M357.441 456.109C355.813 439.085 354.933 421.731 355.36 404.013C342.735 413.533 307.251 405.945 307.251 405.945C310.469 424.505 312.089 447.679 307.401 465.48C323.789 464.139 341.325 460.371 357.441 456.109Z" fill="#FF5593"/>
<path d="M322.191 422.765C325.344 424.967 329.839 424.531 333.432 424.069C337.824 423.505 342.132 422.372 346.365 421.107C347.569 420.747 347.056 418.863 345.847 419.224C342.195 420.316 338.505 421.276 334.745 421.916C331.211 422.519 326.325 423.279 323.176 421.08C322.14 420.357 321.167 422.051 322.191 422.765Z" fill="#AA3C6E"/>
<path d="M322.943 431.061C327.504 430.353 332.163 430.54 336.737 429.925C337.967 429.76 337.981 427.805 336.737 427.973C331.988 428.611 327.161 428.444 322.423 429.179C321.183 429.372 321.711 431.252 322.943 431.061Z" fill="#AA3C6E"/>
<path d="M321.605 433.305C325.935 436.639 332.357 435.175 337.323 434.611C338.559 434.469 338.573 432.516 337.323 432.659C332.729 433.181 326.588 434.697 322.589 431.62C321.592 430.852 320.623 432.549 321.605 433.305Z" fill="#AA3C6E"/>
<path d="M317.085 442.188C325.768 439.78 334.881 439.861 343.764 438.709C344.995 438.549 345.011 436.596 343.764 436.756C334.711 437.931 325.417 437.852 316.568 440.305C315.357 440.641 315.871 442.525 317.085 442.188Z" fill="#AA3C6E"/>
<path d="M320.927 448.664C326.696 448.025 332.467 447.403 338.168 446.287C339.403 446.045 338.879 444.164 337.648 444.405C332.119 445.487 326.524 446.092 320.927 446.712C319.689 446.848 319.676 448.803 320.927 448.664Z" fill="#AA3C6E"/>
<path d="M321.993 452.477C323.649 453.772 326.665 452.912 328.527 452.601C331.775 452.061 335 451.281 338.168 450.387C339.377 450.044 338.863 448.16 337.648 448.503C335.088 449.227 332.499 449.841 329.892 450.369C328.509 450.649 327.117 450.891 325.713 451.043C325.231 451.095 323.673 451.332 323.373 451.097C322.395 450.332 321.001 451.703 321.993 452.477Z" fill="#AA3C6E"/>
<path d="M794.064 646.261C794.612 654.179 788.639 660.596 780.723 660.596H735.808C727.892 660.596 722.276 654.179 723.265 646.261L734.616 555.477C735.604 547.56 740.801 541.143 746.219 541.143H776.965C782.383 541.143 787.22 547.56 787.769 555.477L794.064 646.261Z" fill="#3D3D3D"/>
<path d="M781.84 643.753C782.278 649.943 777.508 654.959 771.185 654.959H735.311C728.989 654.959 724.504 649.943 725.293 643.753L734.36 572.796C735.149 566.609 739.3 561.592 743.628 561.592H768.183C772.511 561.592 776.375 566.609 776.813 572.796L781.84 643.753Z" fill="#707070"/>
<path d="M754.472 603.268C742.397 603.268 732.575 613.092 732.575 625.168C732.575 637.243 742.397 647.067 754.472 647.067C766.548 647.067 776.371 637.243 776.371 625.168C776.371 613.092 766.548 603.268 754.472 603.268ZM754.472 648.827C741.425 648.827 730.812 638.213 730.812 625.168C730.812 612.121 741.425 601.508 754.472 601.508C767.519 601.508 778.132 612.121 778.132 625.168C778.132 638.213 767.519 648.827 754.472 648.827Z" fill="#3D3D3D"/>
<path d="M754.472 607.015C744.464 607.015 736.319 615.156 736.319 625.167C736.319 635.177 744.464 643.319 754.472 643.319C764.481 643.319 772.625 635.177 772.625 625.167C772.625 615.156 764.481 607.015 754.472 607.015Z" fill="#3D3D3D"/>
<path d="M754.472 570.169C747.644 570.169 742.089 575.724 742.089 582.553C742.089 589.381 747.644 594.937 754.472 594.937C761.301 594.937 766.856 589.381 766.856 582.553C766.856 575.724 761.301 570.169 754.472 570.169ZM754.472 595.932C747.095 595.932 741.093 589.931 741.093 582.553C741.093 575.176 747.095 569.175 754.472 569.175C761.849 569.175 767.852 575.176 767.852 582.553C767.852 589.931 761.849 595.932 754.472 595.932Z" fill="#3D3D3D"/>
<path d="M754.472 572.288C748.812 572.288 744.207 576.892 744.207 582.553C744.207 588.213 748.812 592.817 754.472 592.817C760.133 592.817 764.737 588.213 764.737 582.553C764.737 576.892 760.133 572.288 754.472 572.288Z" fill="#3D3D3D"/>
<path d="M1375.59 1120.58H1413.71V685.359H1375.59V1120.58Z" fill="#A0A0A0"/>
<path d="M1375.59 1120.58H1413.71V1105.38H1375.59V1120.58Z" fill="#3F4547"/>
<path d="M1390.47 1059.73C1390.47 1062.45 1388.72 1064.65 1386.57 1064.65C1384.43 1064.65 1382.68 1062.45 1382.68 1059.73V708.952C1382.68 706.233 1384.43 704.028 1386.57 704.028C1388.72 704.028 1390.47 706.233 1390.47 708.952V1059.73Z" fill="#CCCCCC"/>
<path d="M1103.75 1120.58H1141.88V685.359H1103.75V1120.58Z" fill="#A0A0A0"/>
<path d="M1103.75 1120.58H1141.88V1105.38H1103.75V1120.58Z" fill="#3F4547"/>
<path d="M1118.64 1059.73C1118.64 1062.45 1116.9 1064.65 1114.75 1064.65C1112.6 1064.65 1110.86 1062.45 1110.86 1059.73V708.952C1110.86 706.233 1112.6 704.028 1114.75 704.028C1116.9 704.028 1118.64 706.233 1118.64 708.952V1059.73Z" fill="#CCCCCC"/>
<path d="M667.7 1120.58H705.825V685.359H667.7V1120.58Z" fill="#A0A0A0"/>
<path d="M667.7 1120.58H705.825V1105.38H667.7V1120.58Z" fill="#3F4547"/>
<path d="M682.584 1059.73C682.584 1062.45 680.843 1064.65 678.693 1064.65C676.543 1064.65 674.801 1062.45 674.801 1059.73V708.952C674.801 706.233 676.543 704.028 678.693 704.028C680.843 704.028 682.584 706.233 682.584 708.952V1059.73Z" fill="#CCCCCC"/>
<path d="M396.992 1120.58H435.117V685.359H396.992V1120.58Z" fill="#A0A0A0"/>
<path d="M396.992 1120.58H435.117V1105.38H396.992V1120.58Z" fill="#3F4547"/>
<path d="M411.876 1059.73C411.876 1062.45 410.135 1064.65 407.984 1064.65C405.836 1064.65 404.092 1062.45 404.092 1059.73V708.952C404.092 706.233 405.836 704.028 407.984 704.028C410.135 704.028 411.876 706.233 411.876 708.952V1059.73Z" fill="#CCCCCC"/>
<path d="M395.388 710.108H1415.77V676.617H395.388V710.108Z" fill="#302530"/>
<path d="M364.129 684.432H1444.8V662.104H364.129V684.432Z" fill="#60485E"/>
<path d="M1444.8 662.104V684.432H1148.01V662.104H1444.8Z" fill="#423241"/>
<path d="M480.937 605.615C480.291 605.533 479.639 605.453 478.996 605.372C480.028 605.437 480.685 605.52 480.937 605.615Z" fill="#603043"/>
<path d="M482.027 800.467C459.229 803.776 489.403 814.321 469.644 821.509L570.368 837.007C593.379 835.612 635.569 836.665 677.292 837.719C728.839 839.02 779.672 840.32 792.736 837.007C801.193 834.859 845.06 835.913 848.604 830.932C821.207 786.403 516.217 795.5 482.027 800.467Z" fill="#00788C"/>
<path d="M951.98 658.909H999.852V559.004H951.98V658.909Z" fill="#3D3D3D"/>
<path d="M951.98 658.909H974.12V559.004H951.98V658.909Z" fill="#757573"/>
<path d="M1085.17 655.328C1085.17 658.783 1082.37 661.572 1078.92 661.572H872.913C869.467 661.572 866.671 658.783 866.671 655.328C866.671 653.608 867.369 652.047 868.5 650.923C869.625 649.793 871.193 649.092 872.913 649.092H1078.92C1082.37 649.092 1085.17 651.888 1085.17 655.328Z" fill="#999995"/>
<path d="M1085.17 655.328C1085.17 658.783 1083.21 661.572 1080.79 661.572H1006.39C1003.97 661.572 1002.01 658.783 1002.01 655.328C1002.01 653.608 1002.5 652.047 1003.29 650.923C1004.08 649.793 1005.17 649.092 1006.39 649.092H1080.79C1083.21 649.092 1085.17 651.888 1085.17 655.328Z" fill="#3D3D3D"/>
<path d="M1153.07 384.529V573.759C1153.07 584.664 1145.74 593.737 1136.07 595.651C1134.84 595.901 1133.56 596.025 1132.26 596.025H799.304C798 596.025 796.724 595.901 795.488 595.651C785.819 593.737 778.493 584.664 778.493 573.759V384.529C778.493 372.237 787.816 362.271 799.304 362.271H1132.26C1143.75 362.271 1153.07 372.237 1153.07 384.529Z" fill="#3D3D3D"/>
<path d="M1128.26 392.417V565.879C1128.26 577.151 1119.84 586.287 1109.44 586.287H808.305C797.909 586.287 789.481 577.151 789.481 565.879V392.417C789.481 381.144 797.909 372.009 808.305 372.009H1109.44C1119.84 372.009 1128.26 381.144 1128.26 392.417Z" fill="#544753"/>
<path d="M1129.26 546.221V574.34C1129.26 585.473 1122.38 594.739 1113.3 596.693H793.416C784.333 594.739 777.455 585.473 777.455 574.34V546.221H1129.26Z" fill="#CCCCCC"/>
<path d="M958.239 564.295C958.239 568.604 953.58 572.097 947.833 572.097C942.087 572.097 937.429 568.604 937.429 564.295C937.429 559.984 942.087 556.491 947.833 556.491C953.58 556.491 958.239 559.984 958.239 564.295Z" fill="#757573"/>
<path d="M820.089 382.945H802.861V384.793H820.089V382.945Z" fill="#CACEA5"/>
<path d="M918.545 382.945H895.163V384.793H918.545V382.945Z" fill="#CACEA5"/>
<path d="M923.469 382.945V384.793H999.772V382.945H923.469Z" fill="#CACEA5"/>
<path d="M1052.08 384.793V382.945H1004.69V384.793H1021.93V383.561H1027.47V384.793H1052.08Z" fill="#CACEA5"/>
<path d="M1066.23 382.945V384.793H1085.31V382.945H1066.23Z" fill="#CACEA5"/>
<path d="M820.089 391.561H802.861V393.408H820.089V391.561Z" fill="#CACEA5"/>
<path d="M999.772 391.561H980.083V393.408H999.772V391.561Z" fill="#CACEA5"/>
<path d="M1021.93 391.561H1004.69V393.408H1021.93V391.561Z" fill="#CACEA5"/>
<path d="M1066.23 391.561V393.408H1085.31V391.561H1066.23Z" fill="#CACEA5"/>
<path d="M1052.08 391.561H1027.47V393.408H1052.08V391.561Z" fill="#CACEA5"/>
<path d="M918.545 391.561H895.163V393.408H918.545V391.561Z" fill="#CACEA5"/>
<path d="M923.469 391.561V393.408H970.852V391.561H923.469Z" fill="#CACEA5"/>
<path d="M820.089 400.176H802.861V402.023H820.089V400.176Z" fill="#CACEA5"/>
<path d="M970.852 400.176H906.855V402.023H970.852V400.176Z" fill="#CACEA5"/>
<path d="M983.773 400.176H980.083V402.023H983.773V400.176Z" fill="#CACEA5"/>
<path d="M997.927 400.176V402.023H1021.93V400.176H997.927Z" fill="#CACEA5"/>
<path d="M1052.08 400.176H1027.47V402.023H1052.08V400.176Z" fill="#CACEA5"/>
<path d="M1066.23 400.176V402.023H1085.31V400.176H1066.23Z" fill="#CACEA5"/>
<path d="M820.089 408.792H802.861V410.637H820.089V408.792Z" fill="#CACEA5"/>
<path d="M970.852 408.792H906.855V410.637H970.852V408.792Z" fill="#CACEA5"/>
<path d="M983.773 408.792H980.083V410.637H983.773V408.792Z" fill="#CACEA5"/>
<path d="M997.927 408.792V410.637H1052.08V408.792H997.927Z" fill="#CACEA5"/>
<path d="M1075.46 408.792V410.637H1085.31V408.792H1075.46Z" fill="#CACEA5"/>
<path d="M1073 408.792H1066.23V410.637H1073V408.792Z" fill="#CACEA5"/>
<path d="M852.703 417.407H802.861V419.252H852.703V417.407Z" fill="#CACEA5"/>
<path d="M922.239 417.407H906.855V419.252H922.239V417.407Z" fill="#CACEA5"/>
<path d="M997.927 417.407V419.252H1073V417.407H997.927Z" fill="#CACEA5"/>
<path d="M1075.46 417.407V419.252H1085.31V417.407H1075.46Z" fill="#CACEA5"/>
<path d="M962.237 417.407H943.16V419.252H962.237V417.407Z" fill="#CACEA5"/>
<path d="M892.701 427.251H852.703V426.021H802.861V427.867H892.701V427.251Z" fill="#CACEA5"/>
<path d="M962.237 426.021H943.16V427.867H962.237V426.021Z" fill="#CACEA5"/>
<path d="M997.927 426.021V427.251H991.773V427.867H1031.77V426.021H997.927Z" fill="#CACEA5"/>
<path d="M1033.62 426.021V427.867H1073V426.021H1033.62Z" fill="#CACEA5"/>
<path d="M1075.46 426.021V427.867H1085.31V426.021H1075.46Z" fill="#CACEA5"/>
<path d="M922.239 426.021H906.855V427.867H922.239V426.021Z" fill="#CACEA5"/>
<path d="M802.861 434.636V436.481H805.321V435.867H810.86V436.481H922.239V434.636H802.861Z" fill="#E0E8BF"/>
<path d="M962.237 434.636H943.16V436.481H962.237V434.636Z" fill="#E0E8BF"/>
<path d="M1031.77 434.636H991.773V436.481H1031.77V434.636Z" fill="#E0E8BF"/>
<path d="M1033.62 434.636V436.481H1073V434.636H1033.62Z" fill="#E0E8BF"/>
<path d="M1075.46 434.636V436.481H1085.31V434.636H1075.46Z" fill="#E0E8BF"/>
<path d="M805.321 443.251H802.861V445.096H805.321V443.251Z" fill="#E0E8BF"/>
<path d="M810.86 443.251V445.096H922.239V443.251H810.86Z" fill="#E0E8BF"/>
<path d="M962.237 443.251H943.16V445.096H962.237V443.251Z" fill="#E0E8BF"/>
<path d="M1031.77 443.251H991.773V445.096H1031.77V443.251Z" fill="#E0E8BF"/>
<path d="M1033.62 443.251V445.096H1073V443.251H1033.62Z" fill="#E0E8BF"/>
<path d="M1075.46 443.251V445.096H1085.31V443.251H1075.46Z" fill="#E0E8BF"/>
<path d="M810.86 451.865V453.712H922.239V451.865H810.86Z" fill="#E0E8BF"/>
<path d="M959.159 451.865H943.16V453.712H959.159V451.865Z" fill="#E0E8BF"/>
<path d="M1025 451.865H991.773V453.712H1025V451.865Z" fill="#E0E8BF"/>
<path d="M1056.39 451.865V453.712H1085.31V451.865H1056.39Z" fill="#E0E8BF"/>
<path d="M1045.31 451.865H1039.16V453.712H1045.31V451.865Z" fill="#E0E8BF"/>
<path d="M1025 460.48H991.773V462.327H1025V460.48Z" fill="#E0E8BF"/>
<path d="M1045.31 460.48H1039.16V462.327H1045.31V460.48Z" fill="#E0E8BF"/>
<path d="M1056.39 460.48V462.327H1063.77V460.48H1056.39Z" fill="#E0E8BF"/>
<path d="M1066.85 460.48V462.327H1085.31V460.48H1066.85Z" fill="#E0E8BF"/>
<path d="M959.159 460.48H943.16V462.327H959.159V460.48Z" fill="#E0E8BF"/>
<path d="M810.86 460.48V462.327H829.32V460.48H810.86Z" fill="#E0E8BF"/>
<path d="M829.935 460.48V462.327H922.239V460.48H829.935Z" fill="#E0E8BF"/>
<path d="M959.159 469.096H943.16V470.943H959.159V469.096Z" fill="#E0E8BF"/>
<path d="M1025 469.096H991.773V470.943H1025V469.096Z" fill="#E0E8BF"/>
<path d="M1039.16 469.096V470.943H1045.31V469.096H1039.16Z" fill="#E0E8BF"/>
<path d="M1056.39 469.096V470.943H1063.77V469.096H1056.39Z" fill="#E0E8BF"/>
<path d="M1066.85 469.096V470.943H1085.31V469.096H1066.85Z" fill="#E0E8BF"/>
<path d="M829.935 469.096V470.943H922.239V469.096H829.935Z" fill="#E0E8BF"/>
<path d="M810.86 469.096V470.943H829.32V469.096H810.86Z" fill="#E0E8BF"/>
<path d="M810.86 477.711V478.941H805.321V477.711H804.705V479.556H829.32V477.711H810.86Z" fill="#E0E8BF"/>
<path d="M829.935 477.711V479.556H959.159V477.711H829.935Z" fill="#E0E8BF"/>
<path d="M1010.23 477.711H991.773V479.556H1010.23V477.711Z" fill="#E0E8BF"/>
<path d="M1012.08 477.711V479.556H1063.77V477.711H1012.08Z" fill="#E0E8BF"/>
<path d="M1066.85 477.711V479.556H1085.31V477.711H1066.85Z" fill="#E0E8BF"/>
<path d="M868.703 486.325V488.172H959.159V486.325H868.703Z" fill="#E0E8BF"/>
<path d="M804.705 486.325V488.172H829.32V486.325H804.705Z" fill="#E0E8BF"/>
<path d="M829.935 486.325V488.172H860.703V486.325H829.935Z" fill="#E0E8BF"/>
<path d="M1012.08 486.325V488.172H1063.77V486.325H1012.08Z" fill="#E0E8BF"/>
<path d="M1010.23 486.325H975.159V488.172H1010.23V486.325Z" fill="#E0E8BF"/>
<path d="M1066.85 486.325V488.172H1085.31V486.325H1066.85Z" fill="#E0E8BF"/>
<path d="M816.397 494.94H804.705V496.787H816.397V494.94Z" fill="#E0E8BF"/>
<path d="M819.475 494.94V496.787H829.32V494.94H819.475Z" fill="#E0E8BF"/>
<path d="M829.935 494.94V496.787H860.703V494.94H829.935Z" fill="#E0E8BF"/>
<path d="M868.703 494.94V496.787H959.159V494.94H868.703Z" fill="#E0E8BF"/>
<path d="M1010.23 494.94H975.159V496.787H1010.23V494.94Z" fill="#E0E8BF"/>
<path d="M1012.08 494.94V496.787H1063.77V494.94H1012.08Z" fill="#E0E8BF"/>
<path d="M1066.85 494.94V496.787H1085.31V494.94H1066.85Z" fill="#E0E8BF"/>
<path d="M894.547 503.556V505.401H991.157V503.556H894.547Z" fill="#E0E8BF"/>
<path d="M816.397 503.556H804.705V505.401H816.397V503.556Z" fill="#E0E8BF"/>
<path d="M833.013 503.556H819.475V505.401H833.013V503.556Z" fill="#E0E8BF"/>
<path d="M839.165 503.556V505.401H860.703V503.556H839.165Z" fill="#E0E8BF"/>
<path d="M868.703 503.556V505.401H890.24V503.556H868.703Z" fill="#E0E8BF"/>
<path d="M994.851 503.556V505.401H1010.23V503.556H994.851Z" fill="#E0E8BF"/>
<path d="M1012.08 503.556V505.401H1085.31V503.556H1012.08Z" fill="#E0E8BF"/>
<path d="M994.851 512.171V514.017H1010.23V512.171H994.851Z" fill="#E0E8BF"/>
<path d="M816.397 512.171H802.861V514.017H816.397V512.171Z" fill="#E0E8BF"/>
<path d="M839.165 512.171V514.017H860.703V512.171H839.165Z" fill="#E0E8BF"/>
<path d="M833.013 512.171H819.475V514.017H833.013V512.171Z" fill="#E0E8BF"/>
<path d="M868.703 512.171V514.017H890.24V512.171H868.703Z" fill="#E0E8BF"/>
<path d="M894.547 512.171V514.017H991.157V512.171H894.547Z" fill="#E0E8BF"/>
<path d="M1012.08 512.171V514.017H1085.31V512.171H1012.08Z" fill="#E0E8BF"/>
<path d="M816.397 520.785H802.861V522.632H816.397V520.785Z" fill="#E0E8BF"/>
<path d="M857.627 520.785H839.165V522.632H857.627V520.785Z" fill="#E0E8BF"/>
<path d="M869.317 520.785V522.632H890.24V520.785H869.317Z" fill="#E0E8BF"/>
<path d="M833.013 520.785H819.475V522.632H833.013V520.785Z" fill="#E0E8BF"/>
<path d="M894.547 520.785V522.632H921.008V520.785H894.547Z" fill="#E0E8BF"/>
<path d="M924.699 520.785V522.632H949.313V520.785H924.699Z" fill="#E0E8BF"/>
<path d="M954.853 520.785V522.632H991.157V520.785H954.853Z" fill="#E0E8BF"/>
<path d="M994.851 520.785V522.632H1085.31V520.785H994.851Z" fill="#E0E8BF"/>
<path d="M833.013 529.4H802.861V531.247H833.013V529.4Z" fill="#E0E8BF"/>
<path d="M857.627 529.4H839.165V531.247H857.627V529.4Z" fill="#E0E8BF"/>
<path d="M869.317 529.4V531.247H921.008V529.4H869.317Z" fill="#E0E8BF"/>
<path d="M924.699 529.4V531.247H949.313V529.4H924.699Z" fill="#E0E8BF"/>
<path d="M954.853 529.4V531.247H991.157V529.4H954.853Z" fill="#E0E8BF"/>
<path d="M994.851 529.4V531.247H1085.31V529.4H994.851Z" fill="#E0E8BF"/>
<path d="M977.584 519.9H813.48V396.24H977.584V519.9Z" fill="#353535"/>
<path d="M977.609 405.5H813.455V396.24H977.609V405.5Z" fill="#707070"/>
<path d="M968.988 400.745C968.988 402.523 967.548 403.964 965.771 403.964C963.995 403.964 962.553 402.523 962.553 400.745C962.553 398.969 963.995 397.528 965.771 397.528C967.548 397.528 968.988 398.969 968.988 400.745Z" fill="#FF5821"/>
<path d="M953.543 400.745C953.543 402.523 952.103 403.964 950.325 403.964C948.549 403.964 947.108 402.523 947.108 400.745C947.108 398.969 948.549 397.528 950.325 397.528C952.103 397.528 953.543 398.969 953.543 400.745Z" fill="#889F33"/>
<path d="M938.957 400.745C938.957 402.523 937.517 403.964 935.74 403.964C933.963 403.964 932.521 402.523 932.521 400.745C932.521 398.969 933.963 397.528 935.74 397.528C937.517 397.528 938.957 398.969 938.957 400.745Z" fill="white"/>
<path d="M1110.97 535.441H989.868V444.181H1110.97V535.441Z" fill="#353535"/>
<path d="M1110.99 451.015H989.849V444.181H1110.99V451.015Z" fill="#707070"/>
<path d="M1104.63 447.507C1104.63 448.817 1103.57 449.881 1102.25 449.881C1100.94 449.881 1099.88 448.817 1099.88 447.507C1099.88 446.195 1100.94 445.132 1102.25 445.132C1103.57 445.132 1104.63 446.195 1104.63 447.507Z" fill="#FF5821"/>
<path d="M1093.23 447.507C1093.23 448.817 1092.17 449.881 1090.86 449.881C1089.55 449.881 1088.48 448.817 1088.48 447.507C1088.48 446.195 1089.55 445.132 1090.86 445.132C1092.17 445.132 1093.23 446.195 1093.23 447.507Z" fill="#889F33"/>
<path d="M1082.47 447.507C1082.47 448.817 1081.41 449.881 1080.09 449.881C1078.78 449.881 1077.72 448.817 1077.72 447.507C1077.72 446.195 1078.78 445.132 1080.09 445.132C1081.41 445.132 1082.47 446.195 1082.47 447.507Z" fill="white"/>
<path d="M1014.23 462.883H997.349V463.532H1014.23V462.883Z" fill="white"/>
<path d="M1027.54 462.883V463.532H1049.61V462.883H1027.54Z" fill="white"/>
<path d="M1025.59 462.883H1016.5V463.532H1025.59V462.883Z" fill="white"/>
<path d="M1058.05 462.883H1052.86V463.532H1058.05V462.883Z" fill="white"/>
<path d="M1086.29 462.883H1059.03V463.532H1086.29V462.883Z" fill="white"/>
<path d="M1092.79 462.883H1087.27V463.532H1092.79V462.883Z" fill="white"/>
<path d="M1093.43 462.883V463.532H1102.52V462.883H1093.43Z" fill="white"/>
<path d="M1014.23 464.507H997.349V465.48H1014.23V464.507Z" fill="white"/>
<path d="M1025.59 464.507H1016.5V465.48H1025.59V464.507Z" fill="white"/>
<path d="M1027.54 464.507V465.48H1049.61V464.507H1027.54Z" fill="white"/>
<path d="M1058.05 464.507H1052.86V465.48H1058.05V464.507Z" fill="white"/>
<path d="M1059.03 464.507V465.48H1074.93V464.831H1075.91V465.48H1086.29V464.507H1059.03Z" fill="white"/>
<path d="M1092.79 464.507H1087.27V465.48H1092.79V464.507Z" fill="white"/>
<path d="M1093.43 464.507V465.48H1102.52V464.507H1093.43Z" fill="white"/>
<path d="M1025.91 472.945H997.349V473.595H1025.91V472.945Z" fill="white"/>
<path d="M1026.56 472.945V473.595H1037.93V472.945H1026.56Z" fill="white"/>
<path d="M1040.52 472.945V473.595H1049.61V472.945H1040.52Z" fill="white"/>
<path d="M1074.93 472.945H1052.86V473.595H1074.93V472.945Z" fill="white"/>
<path d="M1087.92 472.945V473.595H1102.52V472.945H1087.92Z" fill="white"/>
<path d="M1086.29 472.945H1075.91V473.595H1086.29V472.945Z" fill="white"/>
<path d="M1026.56 474.569V477.167H1037.93V474.569H1026.56Z" fill="white"/>
<path d="M1025.91 474.569H997.349V477.167H1025.91V474.569Z" fill="white"/>
<path d="M1040.52 474.569V477.167H1049.61V474.569H1040.52Z" fill="white"/>
<path d="M1086.29 474.569H1075.91V476.841H1074.93V474.569H1052.86V477.167H1086.29V474.569Z" fill="white"/>
<path d="M1087.92 474.569V477.167H1093.11V475.543H1097.33V477.167H1102.52V474.569H1087.92Z" fill="white"/>
<path d="M1012.93 487.047H997.673V490.049H1006.76V487.228H1012.93V487.047Z" fill="white"/>
<path d="M1070.71 487.047V487.228H1075.25V487.047H1070.71Z" fill="white"/>
<path d="M1088.24 487.047V487.228H1094.08V490.049H1102.85V487.047H1088.24Z" fill="white"/>
<path d="M1080.13 487.047V487.228H1086.62V487.047H1080.13Z" fill="white"/>
<path d="M1026.89 505.407V506.564H1038.25V505.407H1026.89Z" fill="white"/>
<path d="M1028.51 499.24V501.188H1038.25V499.24H1028.51Z" fill="white"/>
<path d="M997.673 499.24V501.188H1008.71V499.564H1009.03V501.188H1011.31V499.24H997.673Z" fill="white"/>
<path d="M1011.63 499.24V501.188H1023.97V499.24H1011.63Z" fill="white"/>
<path d="M1011.63 505.407V506.564H1026.24V505.407H1011.63Z" fill="white"/>
<path d="M1008.71 505.407H997.673V506.564H1008.71V505.407Z" fill="white"/>
<path d="M1009.03 505.407V506.564H1011.31V505.407H1009.03Z" fill="white"/>
<path d="M1048.31 499.24H1040.85V501.188H1048.31V499.24Z" fill="white"/>
<path d="M1048.31 505.407H1040.85V506.564H1048.31V505.407Z" fill="white"/>
<path d="M1080.13 499.24V501.188H1086.62V499.24H1080.13Z" fill="white"/>
<path d="M1053.18 499.24V501.188H1075.25V499.24H1053.18Z" fill="white"/>
<path d="M1052.07 517.241V519.189H1074.14V517.241H1052.07Z" fill="white"/>
<path d="M1078.58 517.241V519.189H1100.65V517.241H1078.58Z" fill="white"/>
<path d="M1075.58 505.407H1053.18V506.564H1075.58V505.407Z" fill="white"/>
<path d="M1080.13 505.407V506.564H1086.62V505.407H1080.13Z" fill="white"/>
<path d="M1088.24 499.24V501.188H1093.43V499.24H1088.24Z" fill="white"/>
<path d="M1097.65 499.24V501.188H1102.85V499.24H1097.65Z" fill="white"/>
<path d="M1088.24 505.407V506.564H1093.43V505.407H1088.24Z" fill="white"/>
<path d="M1097.65 505.407V506.564H1102.85V505.407H1097.65Z" fill="white"/>
<path d="M1038 510.491V510.673H1043.85V513.493H1052.61V510.491H1038Z" fill="white"/>
<path d="M1029.89 522.684V524.632H1036.38V522.684H1029.89Z" fill="white"/>
<path d="M1002.94 522.684V524.632H1025.02V522.684H1002.94Z" fill="white"/>
<path d="M1025.34 528.852H1002.94V530.008H1025.34V528.852Z" fill="white"/>
<path d="M1029.89 528.852V530.008H1036.38V528.852H1029.89Z" fill="white"/>
<path d="M1038 522.684V524.632H1043.2V522.684H1038Z" fill="white"/>
<path d="M1047.42 522.684V524.632H1052.61V522.684H1047.42Z" fill="white"/>
<path d="M1038 528.852V530.008H1043.2V528.852H1038Z" fill="white"/>
<path d="M1047.42 528.852V530.008H1052.61V528.852H1047.42Z" fill="white"/>
<path d="M1014.23 458.013H997.349V460.285H1014.23V458.013Z" fill="white"/>
<path d="M1025.59 458.013H1016.5V460.285H1025.59V458.013Z" fill="white"/>
<path d="M1027.54 458.013V460.285H1049.61V458.013H1027.54Z" fill="white"/>
<path d="M1086.29 460.285V458.013H1052.86V460.285H1058.05V458.664H1059.03V460.285H1086.29Z" fill="white"/>
<path d="M1087.27 458.013V460.285H1092.79V459.637H1093.43V460.285H1102.52V458.013H1087.27Z" fill="white"/>
<path d="M912.263 653.063L912.305 660.505L1003.85 659.972L1003.81 652.529L912.263 653.063Z" fill="#9C9E8F"/>
<path d="M734.758 654.096L729.221 661.572L935.749 660.368L935.705 652.927L734.758 654.096Z" fill="#C9CCBC"/>
<path d="M755.808 647.648L734.759 654.096L1003.8 652.531L998.187 646.237L755.808 647.648Z" fill="#3D3D3D"/>
<path d="M1119.43 661.572H1052C1058.65 651.509 1069.66 641.807 1090.33 643.06C1092.87 643.215 1095.29 643.584 1097.55 644.135C1108.98 646.899 1116.77 654.209 1119.43 661.572Z" fill="#728425"/>
<path d="M1119.43 661.572H1073.55C1078.46 654.14 1085.75 646.903 1097.55 644.135C1108.98 646.899 1116.77 654.209 1119.43 661.572Z" fill="#889F33"/>
<path d="M1240.06 647.379C1240.61 655.296 1234.64 661.713 1226.72 661.713H1181.81C1173.89 661.713 1168.27 655.296 1169.26 647.379L1180.61 556.593C1181.6 548.677 1186.8 542.259 1192.22 542.259H1222.96C1228.38 542.259 1233.22 548.677 1233.77 556.593L1240.06 647.379Z" fill="#3D3D3D"/>
<path d="M1227.84 644.871C1228.28 651.06 1223.51 656.076 1217.18 656.076H1181.31C1174.99 656.076 1170.5 651.06 1171.29 644.871L1180.36 573.914C1181.15 567.726 1185.3 562.708 1189.63 562.708H1214.18C1218.51 562.708 1222.37 567.726 1222.81 573.914L1227.84 644.871Z" fill="#707070"/>
<path d="M1200.47 604.384C1188.39 604.384 1178.57 614.208 1178.57 626.284C1178.57 638.359 1188.39 648.184 1200.47 648.184C1212.55 648.184 1222.37 638.359 1222.37 626.284C1222.37 614.208 1212.55 604.384 1200.47 604.384ZM1200.47 649.943C1187.42 649.943 1176.81 639.331 1176.81 626.284C1176.81 613.239 1187.42 602.624 1200.47 602.624C1213.52 602.624 1224.13 613.239 1224.13 626.284C1224.13 639.331 1213.52 649.943 1200.47 649.943Z" fill="#3D3D3D"/>
<path d="M1200.47 608.131C1190.46 608.131 1182.32 616.273 1182.32 626.283C1182.32 636.293 1190.46 644.436 1200.47 644.436C1210.48 644.436 1218.62 636.293 1218.62 626.283C1218.62 616.273 1210.48 608.131 1200.47 608.131Z" fill="#3D3D3D"/>
<path d="M1200.47 571.287C1193.64 571.287 1188.09 576.841 1188.09 583.669C1188.09 590.497 1193.64 596.053 1200.47 596.053C1207.3 596.053 1212.85 590.497 1212.85 583.669C1212.85 576.841 1207.3 571.287 1200.47 571.287ZM1200.47 597.049C1193.09 597.049 1187.09 591.048 1187.09 583.669C1187.09 576.292 1193.09 570.291 1200.47 570.291C1207.85 570.291 1213.85 576.292 1213.85 583.669C1213.85 591.048 1207.85 597.049 1200.47 597.049Z" fill="#3D3D3D"/>
<path d="M1200.47 573.404C1194.81 573.404 1190.2 578.009 1190.2 583.669C1190.2 589.331 1194.81 593.935 1200.47 593.935C1206.13 593.935 1210.73 589.331 1210.73 583.669C1210.73 578.009 1206.13 573.404 1200.47 573.404Z" fill="#3D3D3D"/>
<path d="M748.48 1101.03C737.288 1094.7 727.873 1076.45 723.377 1065.23C716.133 1047.16 718.424 1078.72 704.476 1075.22C698.753 1073.79 694.985 1082.29 693.648 1087.22C690.463 1098.97 692.889 1118.4 694.919 1126.08C711.549 1128.25 720.137 1128.14 736.911 1128.36C746.564 1128.49 767.435 1128.61 773.245 1119.85C768.691 1107.58 758.333 1106.6 748.48 1101.03Z" fill="#212030"/>
<path d="M698.512 1010.34C698.236 1024.25 696.001 1037.34 697.267 1051.65C698.34 1063.79 695.205 1082.78 704.927 1091.66C724.072 1082.16 723.92 1038.75 729.216 1020.11L698.512 1010.34Z" fill="#FFA471"/>
<path d="M686.564 1053.21L724.967 1055.64C726.129 1050.75 727.267 1045.85 728.397 1040.92C744.249 971.765 768.893 896.136 773.501 823.3L705.296 808.299C693.124 809.733 686.131 852.101 684.043 866.835C679.425 899.437 683.537 932.801 684.852 965.48C685.973 993.419 687.709 1023.67 686.564 1053.21Z" fill="#212030"/>
<path d="M915.093 1101.03C903.901 1094.7 894.488 1076.45 889.991 1065.23C882.747 1047.16 885.037 1078.72 871.088 1075.22C865.367 1073.79 861.599 1082.29 860.263 1087.22C857.076 1098.97 859.503 1118.4 861.533 1126.08C878.163 1128.25 886.751 1128.14 903.524 1128.36C913.177 1128.49 934.048 1128.61 939.859 1119.85C935.304 1107.58 924.947 1106.6 915.093 1101.03Z" fill="#212030"/>
<path d="M865.127 1010.34C864.849 1024.25 862.615 1037.34 863.88 1051.65C864.955 1063.79 861.819 1082.78 871.54 1091.66C890.685 1082.16 890.533 1038.75 895.829 1020.11L865.127 1010.34Z" fill="#FFA471"/>
<path d="M940.112 823.3L940.089 823.589C936.88 873.837 924.147 925.42 911.364 975.279C905.637 997.596 899.905 1019.57 895.009 1040.92C893.881 1045.85 892.744 1050.75 891.583 1055.64L853.179 1053.21C854.323 1023.67 852.587 993.42 851.465 965.481C850.152 932.801 846.039 899.437 850.655 866.832C851.108 863.639 851.795 859.145 852.709 854.051C855.004 841.289 858.765 824.767 864.035 815.463C866.363 811.348 868.987 808.645 871.912 808.301L940.112 823.3Z" fill="#212030"/>
<path d="M940.089 823.589C939.168 826.391 937.561 829.283 935.177 832.252C925.872 843.852 907.887 849.389 887.92 851.963C876.416 853.447 864.253 853.944 852.709 854.051C839.051 854.173 826.256 853.743 816.455 853.743C788.629 853.743 761.097 853.815 733.675 851.509C718.788 850.259 699.96 851.523 683.839 849.372C678.535 848.663 673.524 847.585 669.04 845.928L676.683 756.616C728.617 752.063 754.06 745.397 804.66 756.059C821.992 759.708 953.447 782.908 940.089 823.589Z" fill="#212030"/>
<path d="M911.364 975.279C905.637 997.596 899.905 1019.57 895.009 1040.92C893.881 1045.85 892.744 1050.75 891.583 1055.64L853.179 1053.21C854.323 1023.67 852.587 993.42 851.465 965.481C850.152 932.801 846.039 899.437 850.655 866.832C851.108 863.639 851.795 859.145 852.709 854.051C839.051 854.173 826.256 853.743 816.455 853.743C788.629 853.743 761.097 853.815 733.675 851.509C718.788 850.259 699.96 851.523 683.839 849.372L688.315 806.821C693.535 814.452 729.399 813.068 740.601 813.52C765.335 814.524 789.695 813.937 814.295 815.195C829.159 815.953 846.681 815.345 864.035 815.463C883.404 815.595 902.568 816.644 917.623 821.524C905.392 823.171 895.545 827.317 884.425 832.359C891.168 836.321 902.612 838.32 909.251 841.619C900.341 840.585 893.368 844.845 887.92 851.963C873.92 870.249 869.991 907.441 869.188 922.379C868.301 938.845 869.747 961.564 884.355 972.287C893.815 979.243 902.584 978.141 911.364 975.279Z" fill="#171721"/>
<path d="M704.205 348.905C697.463 348.905 691.976 354.385 691.976 361.121V365.619C691.976 372.355 697.463 377.835 704.205 377.835H711.927C718.669 377.835 724.156 372.355 724.156 365.619V361.121C724.156 354.385 718.669 348.905 711.927 348.905H704.205ZM711.927 380.395H704.205C695.924 380.395 689.187 373.767 689.187 365.619V361.121C689.187 352.973 695.924 346.345 704.205 346.345H711.927C720.209 346.345 726.947 352.973 726.947 361.121V365.619C726.947 373.767 720.209 380.395 711.927 380.395Z" fill="#636363"/>
<path d="M704.933 372.587C704.519 376.013 703.449 388.303 703.644 395.193C703.887 403.767 704.944 412.663 706.613 420.932C697.169 424.401 682.909 412.627 676.776 406.396C667.486 396.955 662.267 385.508 660.721 372.439L704.933 372.587Z" fill="#F2EDEE"/>
<path d="M698.259 379.364C692.713 379.275 688.824 388.367 688.337 393.007C687.435 401.647 695.729 409.736 693.973 417.816C687.587 415.357 679.919 407.04 675.027 402.159C670.036 397.183 660.976 387.643 661.311 380.097L698.259 379.364Z" fill="#F2F0EB"/>
<path d="M711.144 390.837C710.697 405.987 707.695 420.963 707.767 423.597L707.761 423.608C707.773 423.871 707.773 424.144 707.757 424.401C707.74 425.556 707.567 426.712 707.071 427.761C706.561 428.793 705.736 429.715 704.419 430.413C698.987 433.281 691.925 433.544 685.228 432.265C684.111 432.053 683 431.797 681.912 431.501C681.164 431.305 680.432 431.088 679.707 430.853C677.217 430.045 674.872 429.051 672.791 427.935C669.697 426.271 667.187 424.335 665.645 422.336C665.037 421.537 664.579 420.728 664.301 419.924C664.284 420.287 664.261 420.677 664.245 421.103C664.233 421.308 664.223 421.515 664.217 421.728L664.205 421.989C664.189 422.247 664.179 422.509 664.167 422.777L664.155 423.044V423.107C664.144 423.335 664.139 423.564 664.128 423.799C664.116 424.105 664.105 424.423 664.088 424.741C664.076 425.071 664.067 425.412 664.055 425.763C664.021 426.712 663.983 427.716 663.949 428.777C663.899 430.391 663.849 432.081 663.799 433.817C663.787 434.337 663.769 434.861 663.759 435.385C663.676 438.428 663.603 441.576 663.536 444.641C663.531 444.915 663.524 445.188 663.52 445.456C663.468 447.644 663.429 449.787 663.391 451.808C663.34 454.544 663.296 457.06 663.268 459.211C663.2 463.436 663.179 466.215 663.2 466.332L663.044 466.372C658.809 467.505 652.227 468.024 644.652 467.996C630.876 467.951 613.817 466.093 601.643 462.833L601.637 462.828C596.781 461.532 592.7 460.008 589.915 458.289C588.932 457.687 588.119 457.055 587.481 456.408L587.42 456.341L587.108 455.995C588.515 453.483 589.503 447.879 590.211 440.812C590.289 440.031 590.367 439.232 590.435 438.417C590.547 437.195 590.64 435.933 590.736 434.644C591.049 430.324 591.283 425.689 591.467 421.029C591.819 411.825 591.959 402.503 592.059 395.247V395.241C592.115 391.407 592.153 388.147 592.209 385.785C592.253 383.976 592.265 382.403 592.249 381.119C591.997 365.421 590.172 349.787 589.068 334.051C587.381 309.925 686.333 314.977 686.333 314.977C693.796 320.705 696.297 329.156 698.345 338.451C698.379 338.607 698.412 338.763 698.445 338.919C699.071 341.776 699.663 344.713 700.344 347.677C700.421 348.017 700.505 348.364 700.588 348.704C700.656 348.988 700.728 349.279 700.796 349.563L700.805 349.609L700.891 349.937C701.152 350.981 701.425 352.031 701.723 353.075C701.856 353.527 701.984 353.973 702.124 354.425C702.704 356.324 703.363 358.216 704.139 360.085C704.447 360.388 704.736 360.711 705.016 361.045C705.545 361.676 706.037 362.363 706.483 363.1C708.275 366.019 709.453 369.72 710.184 373.851C711.105 379.069 711.317 384.964 711.144 390.837Z" fill="#FFA471"/>
<path d="M707.068 427.759C706.56 428.793 705.736 429.716 704.416 430.413C690.892 437.557 667.269 428.52 664.303 419.925C663.713 431.287 662.652 474.352 663.124 476.557C646.96 480.999 595.591 466.023 587.109 455.995C592.051 447.152 591.872 400.065 592.209 385.787L660.301 369.847C661.305 371.743 660.169 375.812 660.087 378.229C659.976 381.315 660.032 384.567 660.233 387.647C660.608 393.512 662.243 399.612 664.777 405.036C669.469 415.069 678.497 425.847 689.844 428.472C694.595 429.571 701.411 429.691 707.068 427.759Z" fill="#E07F4F"/>
<path d="M717.279 381.816C716.824 380.997 713.888 379.616 713.027 378.649C711.188 376.593 710.245 373.765 708.983 371.356C707.26 368.059 704.856 361.451 702.392 359.937L703.42 392.389C707.169 391.093 722.424 391.079 717.279 381.816Z" fill="#FFA471"/>
<path d="M706.483 363.1C706.328 363.245 706.165 363.368 705.997 363.473C705.545 363.764 705.055 363.943 704.529 363.988C703.413 364.077 702.325 363.547 701.409 362.581C700.137 361.241 699.215 359.059 698.997 356.529C698.915 355.536 698.948 354.571 699.087 353.677C699.339 351.985 699.947 350.54 700.796 349.563L700.805 349.609L700.891 349.937C701.152 350.981 701.425 352.031 701.723 353.075C701.856 353.527 701.984 353.973 702.124 354.425C702.704 356.324 703.363 358.216 704.139 360.085C704.447 360.388 704.736 360.711 705.016 361.045C705.545 361.676 706.037 362.363 706.483 363.1Z" fill="#121C26"/>
<path d="M701.723 353.075C700.812 353.215 699.919 353.42 699.087 353.677C696.849 354.364 695.057 355.424 694.593 356.687C695.18 353.063 697.429 350.011 700.588 348.704C700.656 348.988 700.728 349.279 700.796 349.563L700.805 349.609L700.891 349.937C701.152 350.981 701.425 352.031 701.723 353.075Z" fill="#121C26"/>
<path d="M703.935 340.469C701.688 338.185 695.695 337.535 691.96 340.033C687.983 342.193 682.975 347.88 683.684 349.684C684.021 351.161 694.249 349.151 696.737 348.508C699.175 347.703 710.009 346.899 703.935 340.469Z" fill="#49211C"/>
<path d="M587.576 306.121C596.381 280.209 622.239 283.205 651.955 284.228C683.681 285.319 706.963 297.292 706.963 297.292C706.504 317.96 708.452 319.232 700.228 338.033C695.068 338.727 678.532 366.645 658.38 351.975C665.708 364.599 666.679 396.821 659.964 411.083C653.817 424.128 649.175 415.467 638.679 423.057C636.632 419.327 633.677 415.617 630.711 413.059C631.852 420.449 634.331 428.2 633.084 435.928C624.373 440.692 616.357 441.093 606.24 441.561C591.601 442.239 589.737 440.76 585.448 427.544C578.867 407.271 580.001 396.599 570.788 377.305C563.788 357.247 550.295 325.188 587.576 306.121Z" fill="#49211C"/>
<path d="M655.169 370.651L724.713 358.612L725.552 362.799L657.925 374.823L655.169 370.651Z" fill="#636363"/>
<path d="M644.924 369.5C653.848 359.265 664.276 372.169 668.423 377.269C668.423 377.269 668.323 395.053 663.528 399.167C657.724 404.145 649.307 399.393 645.593 394.348C640.664 387.649 638.243 377.168 644.924 369.5Z" fill="#FFA471"/>
<path d="M645.281 375.172C648.076 367.407 655.496 371.145 658.771 376.371C647.321 372.027 646.085 385.255 648.94 392.732C646.144 387.472 643.055 381.367 645.281 375.172Z" fill="#E07F4F"/>
<path d="M752.033 759.788C751.837 759.893 751.636 759.999 751.436 760.105C737.839 767.235 712.14 774.389 696.096 777.835C692.037 778.699 688.605 779.335 686.133 779.671C658.853 783.388 632.468 782.976 605.881 777.064C598.864 751.443 582.648 727.797 576.697 701.635C569.827 671.415 558.401 627.651 556.949 596.269C555.872 573.048 541.069 512.612 542.475 489.213C543.005 480.388 549.395 481.063 556.252 481.737C562.755 482.377 569.679 483.016 572.428 475.559L572.595 461.544C571.529 453.104 570.028 444.205 571.424 435.515C597.105 434.521 632.495 431.183 655.181 441.9C675.555 451.529 700.165 454.851 718.224 471.128C728.605 480.477 731.911 559.451 737.201 630.86C741.439 688.003 746.936 740.305 758.352 748.244C763.164 751.592 759.664 755.679 752.033 759.788Z" fill="#FF5821"/>
<path d="M751.436 760.105C737.839 767.235 712.139 774.389 696.096 777.835C691.508 742.153 704.419 689.472 697.709 663.683C690.744 636.933 688.544 613.769 684.312 586.657C682.472 574.84 684.576 550.185 683.977 538.296C683.548 529.795 685.72 519.344 682.856 511.557L711.881 583.007C714.183 601.355 727.985 615.276 737.201 630.861C741.439 688.003 746.936 740.305 758.352 748.244C759.725 749.197 763.017 754.107 751.436 760.105Z" fill="#D83A0F"/>
<path d="M685.367 429.317C685.367 446.581 671.372 460.576 654.108 460.576C636.844 460.576 622.849 446.581 622.849 429.317C622.849 412.053 636.844 398.057 654.108 398.057C671.372 398.057 685.367 412.053 685.367 429.317Z" fill="#212030"/>
<path d="M682.019 429.317C682.019 441.956 671.771 452.203 659.132 452.203C646.492 452.203 636.247 441.956 636.247 429.317C636.247 416.677 646.492 406.431 659.132 406.431C671.771 406.431 682.019 416.677 682.019 429.317Z" fill="#3C3C56"/>
<path d="M679.785 429.317C679.785 437.795 672.913 444.667 664.435 444.667C655.957 444.667 649.084 437.795 649.084 429.317C649.084 420.839 655.957 413.967 664.435 413.967C672.913 413.967 679.785 420.839 679.785 429.317Z" fill="#212030"/>
<path d="M665.552 423.363C640.212 431.427 599.617 425.536 575.363 415.756C575.475 420.665 574.281 431.332 574.567 436.201C586.965 441.655 599.908 442.24 613.64 442.9C627.887 443.584 654.308 439.861 667.227 433.968L665.552 423.363Z" fill="#8A8A8E"/>
<path d="M672.808 428.387C672.808 431.777 670.06 434.527 666.668 434.527C663.277 434.527 660.528 431.777 660.528 428.387C660.528 424.996 663.277 422.247 666.668 422.247C670.06 422.247 672.808 424.996 672.808 428.387Z" fill="#8A8A8E"/>
<path d="M784.688 657.765C784.236 658.139 783.779 658.508 783.308 658.865C776.103 664.375 766.736 667.251 748.588 653.155C746.552 651.576 744.408 649.784 742.147 647.757C727.719 634.847 715.711 608.791 704.609 593.607C703.336 591.865 702.064 590.068 700.797 588.209C682.572 561.539 665.357 523.419 665.819 491.356C666.016 477.841 669.108 467.593 682.152 463.893C690.927 461.404 707.417 451.563 728.689 485.351C728.689 485.351 763.504 558.156 779.675 609.493C787.223 633.463 790.711 652.753 784.688 657.765Z" fill="#FF5821"/>
<path d="M907.128 624.74C894.219 620.441 878.54 628.735 866.781 633.908L878.701 646.148C887.804 647.896 891.576 647.953 900.717 647.695C925.719 646.987 928.196 650.917 936.604 648.661C934.767 637.549 919.871 628.981 907.128 624.74Z" fill="#FFA471"/>
<path d="M888.468 648.824C887.396 651.063 863.015 657.236 839.028 662.528C819.084 666.92 799.408 670.704 793.641 671.101C776.12 672.296 758.949 665.843 748.588 653.155C743.213 646.575 739.669 638.323 738.855 628.588C738.793 627.913 738.749 627.227 738.72 626.535L760.965 609.728C767.305 608.361 773.379 608.476 779.675 609.493C801.953 613.077 827.011 627.931 876.656 628.344C876.656 628.344 890.969 643.583 888.468 648.824Z" fill="#FF5821"/>
<path d="M839.028 662.528C819.084 666.92 799.408 670.704 793.641 671.101C776.12 672.296 758.949 665.843 748.588 653.155C746.552 651.576 744.408 649.784 742.147 647.757C727.719 634.847 715.711 608.791 704.609 593.607C703.336 591.865 702.064 590.068 700.797 588.209C691.965 562.304 681.764 547.023 682.64 520.513C691.851 563.213 730.497 617.039 738.855 628.588C745.62 637.949 753.301 646.687 762.767 654.339C761.605 648.085 761.891 641.009 762.371 634.695C767.433 647.26 774.439 654.685 783.308 658.865C793.016 663.443 804.961 664.14 819.056 663.443C825.52 663.125 832.273 662.873 839.028 662.528Z" fill="#D83A0F"/>
<path d="M541.3 947.62C541.3 951.123 539.328 953.964 536.897 953.964H507.291C504.859 953.964 502.887 951.123 502.887 947.62C502.887 944.119 504.859 941.276 507.291 941.276H536.897C539.328 941.276 541.3 944.119 541.3 947.62Z" fill="#44283E"/>
<path d="M528.324 950.353C538.771 948.688 549.427 949.467 559.873 947.732C570.443 945.977 579.147 940.156 587.844 934.256C596.428 928.432 604.919 922.408 614.467 918.231C624.763 913.727 636.652 913.968 647.607 912.447C650.823 912 649.449 907.131 646.263 907.572C635.276 909.097 623.728 909.016 613.316 913.273C603.744 917.191 595.224 923.112 586.728 928.916C577.876 934.96 569.267 940.916 558.529 942.859C548.132 944.743 537.425 943.812 526.981 945.48C523.769 945.992 525.139 950.863 528.324 950.353Z" fill="#44283E"/>
<path d="M858.847 863.181V870.965C858.847 879.34 852.06 886.128 843.685 886.128H497.991C489.616 886.128 482.828 879.34 482.828 870.965V863.181C482.828 854.807 489.616 848.019 497.991 848.019H843.685C852.06 848.019 858.847 854.807 858.847 863.181Z" fill="#553D57"/>
<path d="M874.663 848.019V849.404C874.663 858.845 868.137 866.941 858.847 870.368V870.965C858.847 879.34 852.06 886.128 843.685 886.128H630.656C622.676 886.128 616.125 879.956 615.539 872.117C615.508 871.739 615.493 871.355 615.493 870.965V863.181C615.493 854.807 622.287 848.019 630.656 848.019H874.663Z" fill="#44283E"/>
<path d="M694.617 927.721H656.217L537.347 867.075H811.476L694.617 927.721Z" fill="#44283E"/>
<path d="M679.731 927.72H655.801L536.928 867.075H622.448L679.731 927.72Z" fill="#553D57"/>
<path d="M664.916 995.449H683.447V930.753H664.916V995.449Z" fill="#44283E"/>
<path d="M665.845 1055.94H667.7V995.45H665.845V1055.94Z" fill="#FFFEF8"/>
<path d="M667.7 1055.94H674.802V995.45H667.7V1055.94Z" fill="#CDBDC4"/>
<path d="M674.801 1055.94H678.825V995.45H674.801V1055.94Z" fill="#F0F0F0"/>
<path d="M678.825 995.449H665.845V959.057H678.825V995.449Z" fill="#572F4B"/>
<path d="M689.008 1055.94H659.356V959.057H689.008V1055.94Z" fill="#44283E"/>
<path d="M672.336 1055.94H659.356V959.057H672.336V1055.94Z" fill="#69698E"/>
<path d="M698.437 933.952C698.437 937.397 696.237 940.188 693.524 940.188H654.88C652.168 940.188 649.969 937.397 649.969 933.952C649.969 932.228 650.517 930.673 651.408 929.544C652.297 928.417 653.524 927.72 654.88 927.72H693.524C696.237 927.72 698.437 930.511 698.437 933.952Z" fill="#553D57"/>
<path d="M698.437 933.952C698.437 937.397 696.237 940.188 693.524 940.188H679.119C676.405 940.188 674.205 937.397 674.205 933.952C674.205 932.228 674.753 930.673 675.643 929.544C676.533 928.417 677.764 927.72 679.119 927.72H693.524C696.237 927.72 698.437 930.511 698.437 933.952Z" fill="#44283E"/>
<path d="M684.271 1049.5V1103.68C684.271 1106.63 682.901 1109.25 680.763 1110.94C680.02 1111.54 679.181 1112.02 678.272 1112.36C677.255 1112.75 676.153 1112.95 675.005 1112.95C673.86 1112.95 672.756 1112.75 671.741 1112.36C670.831 1112.02 669.992 1111.54 669.244 1110.94C668.967 1110.72 668.703 1110.49 668.451 1110.24C666.772 1108.56 665.737 1106.24 665.737 1103.68V1049.5C665.737 1046.56 667.107 1043.94 669.244 1042.24C669.992 1041.65 670.831 1041.17 671.741 1040.82C672.756 1040.44 673.86 1040.23 675.005 1040.23C676.153 1040.23 677.255 1040.44 678.272 1040.82C679.181 1041.17 680.02 1041.65 680.763 1042.24C681.041 1042.46 681.304 1042.69 681.556 1042.95C683.235 1044.63 684.271 1046.94 684.271 1049.5Z" fill="#44283E"/>
<path d="M676.337 1083.46C676.337 1084.19 675.74 1084.79 675.004 1084.79C674.265 1084.79 673.669 1084.19 673.669 1083.46V1051.75C673.669 1051.02 674.265 1050.42 675.004 1050.42C675.74 1050.42 676.337 1051.02 676.337 1051.75V1083.46Z" fill="#553D57"/>
<path d="M679.721 1100.4H667.163V1082.19H679.721V1100.4Z" fill="#44283E"/>
<path d="M671.887 1100.4H667.163V1082.19H671.887V1100.4Z" fill="#69698E"/>
<path d="M668.609 1112.33C668.609 1122.44 660.416 1130.63 650.305 1130.63C640.197 1130.63 632.004 1122.44 632.004 1112.33C632.004 1102.22 640.197 1094.02 650.305 1094.02C660.416 1094.02 668.609 1102.22 668.609 1112.33Z" fill="#2D2D3F"/>
<path d="M659.457 1112.33C659.457 1117.38 655.361 1121.48 650.305 1121.48C645.252 1121.48 641.155 1117.38 641.155 1112.33C641.155 1107.27 645.252 1103.18 650.305 1103.18C655.361 1103.18 659.457 1107.27 659.457 1112.33Z" fill="#1D1D28"/>
<path d="M681.996 1106.22H628.972C629.551 1096.8 641.192 1089.29 655.48 1089.29C657.473 1089.29 659.417 1089.43 661.288 1089.71C672.807 1091.42 681.495 1098.11 681.996 1106.22Z" fill="#69698E"/>
<path d="M681.996 1106.22H640.581C641.088 1098.11 649.776 1091.42 661.288 1089.71C672.807 1091.42 681.495 1098.11 681.996 1106.22Z" fill="#44283E"/>
<path d="M517.232 1098.03H504.672V1079.82H517.232V1098.03Z" fill="#44283E"/>
<path d="M509.397 1098.03H504.672V1079.82H509.397V1098.03Z" fill="#49363E"/>
<path d="M506.121 1109.95C506.121 1120.06 497.925 1128.26 487.816 1128.26C477.708 1128.26 469.515 1120.06 469.515 1109.95C469.515 1099.85 477.708 1091.65 487.816 1091.65C497.925 1091.65 506.121 1099.85 506.121 1109.95Z" fill="#2D2D3F"/>
<path d="M496.969 1109.95C496.969 1115.01 492.871 1119.11 487.816 1119.11C482.763 1119.11 478.665 1115.01 478.665 1109.95C478.665 1104.9 482.763 1100.8 487.816 1100.8C492.871 1100.8 496.969 1104.9 496.969 1109.95Z" fill="#1D1D28"/>
<path d="M519.507 1103.85H466.48C467.061 1094.43 478.701 1086.91 492.989 1086.91C494.985 1086.91 496.925 1087.06 498.799 1087.34C510.317 1089.05 519.005 1095.74 519.507 1103.85Z" fill="#69698E"/>
<path d="M519.507 1103.85H478.091C478.599 1095.74 487.287 1089.05 498.799 1087.34C510.317 1089.05 519.005 1095.74 519.507 1103.85Z" fill="#44283E"/>
<path d="M659.44 1027.08C649.171 1028.9 511.855 1058.48 494.001 1076.78C489.205 1081.7 501.139 1084.46 506.467 1083.46L659.44 1054.67V1027.08Z" fill="#44283E"/>
<path d="M659.44 1027.08V1041.41C636.515 1045.15 515.187 1065.49 495.271 1078.37C494.076 1079.14 493.927 1080.27 494.133 1081.09C492.697 1079.97 492.313 1078.51 494.003 1076.78C511.855 1058.48 649.175 1028.9 659.44 1027.08Z" fill="#69698E"/>
<path d="M659.334 1027.08V1030.12C649.422 1031.87 518.093 1059.67 492.993 1078.06C493.17 1077.65 493.469 1077.23 493.899 1076.78C511.751 1058.48 649.07 1028.9 659.334 1027.08Z" fill="#69698E"/>
<path d="M831.173 1098.03H843.732V1079.82H831.173V1098.03Z" fill="#44283E"/>
<path d="M839.007 1098.03H843.732V1079.82H839.007V1098.03Z" fill="#49363E"/>
<path d="M842.285 1109.95C842.285 1120.06 850.479 1128.26 860.587 1128.26C870.696 1128.26 878.892 1120.06 878.892 1109.95C878.892 1099.85 870.696 1091.65 860.587 1091.65C850.479 1091.65 842.285 1099.85 842.285 1109.95Z" fill="#2D2D3F"/>
<path d="M851.436 1109.95C851.436 1115.01 855.535 1119.11 860.587 1119.11C865.641 1119.11 869.741 1115.01 869.741 1109.95C869.741 1104.9 865.641 1100.8 860.587 1100.8C855.535 1100.8 851.436 1104.9 851.436 1109.95Z" fill="#1D1D28"/>
<path d="M828.9 1103.85H881.923C881.345 1094.43 869.703 1086.91 855.416 1086.91C853.419 1086.91 851.479 1087.06 849.605 1087.34C838.087 1089.05 829.399 1095.74 828.9 1103.85Z" fill="#69698E"/>
<path d="M828.9 1103.85H870.312C869.807 1095.74 861.119 1089.05 849.605 1087.34C838.087 1089.05 829.399 1095.74 828.9 1103.85Z" fill="#44283E"/>
<path d="M688.965 1027.08C699.233 1028.9 836.552 1058.48 854.404 1076.78C859.199 1081.7 847.267 1084.46 841.937 1083.46L688.965 1054.67V1027.08Z" fill="#44283E"/>
<path d="M688.967 1027.08L688.965 1041.41C711.891 1045.15 833.22 1065.49 853.135 1078.37C854.329 1079.14 854.477 1080.27 854.269 1081.09C855.705 1079.97 856.089 1078.51 854.403 1076.78C836.552 1058.48 699.231 1028.9 688.967 1027.08Z" fill="#69698E"/>
<path d="M689.071 1027.08V1030.12C698.98 1031.87 830.311 1059.67 855.411 1078.06C855.235 1077.65 854.936 1077.23 854.507 1076.78C836.656 1058.48 699.335 1028.9 689.071 1027.08Z" fill="#69698E"/>
<path d="M821.037 686.649C815.43 683.223 803.657 682.605 797.275 682.605H684.375C688.176 692.517 691.259 702.757 694.467 712.932H800.053L800.189 712.967H800.194L800.25 713.003L800.265 713.012C800.584 713.265 800.913 713.537 801.155 713.781L801.165 713.796L801.236 713.903C801.469 714.26 801.681 714.631 801.883 715.009L801.888 715.02C802.132 715.773 802.339 716.529 802.511 717.304V717.308C802.64 719.74 802.55 722.196 802.55 724.623V824.145C802.55 832.409 809.449 839.309 817.713 839.309C818.941 839.309 820.133 839.159 821.281 838.864C827.872 837.232 832.876 831.183 832.876 824.145V719.092C832.876 706.092 832.268 693.523 821.037 686.649Z" fill="#553D57"/>
<path d="M800.412 712.831C800.301 712.695 800.245 712.623 800.231 712.597C800.245 712.603 800.327 712.699 800.436 712.836L800.412 712.831Z" fill="#553D57"/>
<path d="M800.503 712.947L800.499 712.936L800.522 712.941L800.537 712.961L800.503 712.947Z" fill="#553D57"/>
<path d="M800.816 713.325L800.635 713.1L800.66 713.108L800.825 713.331L800.816 713.325Z" fill="#553D57"/>
<path d="M811.531 697.769C805.932 694.343 792.512 693.725 786.124 693.725H688.345C690.476 700.088 692.447 706.524 694.467 712.932H800.053L800.189 712.967H800.195L800.251 713.003L800.265 713.012C800.584 713.265 800.913 713.537 801.155 713.781L801.165 713.796L801.236 713.903C801.469 714.26 801.681 714.631 801.883 715.009L801.888 715.02C802.132 715.773 802.339 716.529 802.511 717.304V717.308C802.64 719.74 802.551 722.196 802.551 724.623V824.145C802.551 832.409 809.449 839.309 817.713 839.309C818.941 839.309 820.133 839.159 821.281 838.864C821.58 837.707 821.731 836.505 821.731 835.267V730.213C821.731 717.212 822.768 704.643 811.531 697.769Z" fill="#44283E"/>
<path d="M806.477 691.577C819.268 691.763 825.083 703.463 824.8 714.953C824.739 717.4 828.529 717.393 828.588 714.953C828.757 708.092 827.271 700.916 822.855 695.48C818.777 690.465 812.896 687.88 806.477 687.787C804.031 687.751 804.033 691.541 806.477 691.577Z" fill="#717199"/>
<path d="M469.921 449.396C469.949 461.064 479.428 470.5 491.095 470.475L585.609 470.259C597.277 470.232 606.713 460.752 606.688 449.085L606.611 415.276C606.584 403.609 597.103 394.172 585.436 394.199L490.921 394.413C479.255 394.44 469.819 403.919 469.845 415.588L469.921 449.396Z" fill="#00B8D6"/>
<path d="M473.781 461.537C471.639 458.508 470.272 454.889 469.976 450.972C469.977 450.972 469.98 450.972 469.983 450.972C470.281 454.889 471.648 458.508 473.791 461.536H473.789C473.787 461.537 473.784 461.537 473.781 461.537Z" fill="#E0D3C7"/>
<path d="M473.791 461.536C471.648 458.508 470.281 454.889 469.983 450.972C470.388 450.997 470.795 451.012 471.204 451.012C471.243 451.012 471.283 451.012 471.323 451.012L565.837 450.799C577.505 450.771 586.943 441.291 586.915 429.623L586.837 395.816C586.835 395.285 586.815 394.76 586.772 394.239C597.813 394.907 606.576 404.06 606.601 415.276L606.677 449.084C606.685 452.664 605.803 456.039 604.237 458.997H604.233C589.932 458.069 571.967 457.715 554.443 457.715C525.807 457.715 498.349 458.661 489.993 459.6C484.447 460.224 478.904 460.883 473.791 461.536Z" fill="#009BB7"/>
<path d="M721.511 776.019C720.852 790.716 721.873 810.068 717.788 825.491C717.256 827.496 716.643 829.432 715.924 831.285C715.884 831.408 715.833 831.531 715.784 831.653C715.483 832.424 708.332 873.156 707.985 873.892C674.197 874.311 629.024 875.115 587.952 875.465C564.769 875.661 542.893 875.712 525.109 875.465C499.537 875.115 482.415 874.143 482.005 872.112C471.433 872.112 462.329 862.756 461.347 850.516L459.951 833.093L459.521 827.712L432.444 490.245C432.349 489.083 432.332 487.939 432.388 486.811C432.928 475.519 440.66 466.269 450.831 465.455C453.187 464.449 462.413 462.999 473.789 461.536C478.903 460.883 484.445 460.224 489.993 459.6C503.463 458.087 566.561 456.552 604.233 458.997H604.245C610.949 459.427 616.849 459.991 621.521 460.699C653.651 465.567 668.567 483.976 674.076 516.484C674.259 517.601 674.455 518.717 674.644 519.84C676.308 529.564 678 539.283 679.719 549.011C680.456 553.159 681.192 557.307 681.935 561.459C685.167 579.456 688.499 597.491 691.915 615.581C692.463 618.507 693.021 621.431 693.573 624.361C693.803 625.556 694.041 626.763 694.293 627.963C701.176 661.069 715.924 693.801 719.357 727.243C719.975 733.321 720.545 739.463 720.964 745.631C721.656 755.728 721.957 765.904 721.511 776.019Z" fill="#00B8D6"/>
<path d="M563.708 843.924C513.619 843.924 463.509 833.936 459.951 833.093L459.521 827.712L439.612 579.587L439.455 577.615L439.109 573.316L438.953 571.38L438.48 565.469L438.321 563.497L437.839 557.479L437.681 555.513L434.181 511.904L432.444 490.245C432.385 489.519 432.356 488.8 432.356 488.087C432.356 487.659 432.367 487.235 432.388 486.811C436.077 485.796 439.807 484.673 443.519 483.547C452.579 480.783 461.553 477.964 469.781 476.468C471.624 476.128 473.432 475.86 475.191 475.669C484.367 474.689 493.444 474.316 502.463 474.316C521.365 474.316 540.028 475.952 558.931 477.059C583.324 478.488 612.272 478.181 632.295 494.135C652.652 510.356 652.708 539.388 655.979 562.475C663.492 615.465 669.521 671.552 669.465 726.512C669.436 751 673.439 784.715 664.441 806.904C661.381 814.444 656.14 820.563 649.275 825.491C629.621 839.595 596.664 843.924 563.708 843.924Z" fill="#009BB7"/>
<path d="M875.779 848.215V852.753C875.779 862.193 866.149 870.292 852.441 873.72C847.937 874.841 843.003 875.467 837.816 875.467H525.109C499.537 875.115 482.415 874.143 482.005 872.112C471.433 872.112 462.329 862.756 461.347 850.516L459.951 833.093L459.521 827.712C464.484 826.291 470.037 825.491 475.911 825.491H837.816C858.783 825.491 875.779 835.661 875.779 848.215Z" fill="#00B8D6"/>
<path d="M1033.64 617.264C1033.64 618.533 1033.61 619.791 1033.54 621.033L1033.54 621.149L1033.53 621.208L1033.53 621.271C1033.52 621.581 1033.5 621.888 1033.48 622.195C1033.01 629.316 1031.53 635.985 1029.27 641.876C1027.62 646.192 1025.53 650.089 1023.12 653.437C1020.61 656.925 1017.73 659.817 1014.58 661.971H987.997C985.088 659.981 982.409 657.361 980.036 654.225C973.232 645.24 968.935 632.012 968.935 617.264C968.935 613.349 969.239 609.543 969.809 605.893H1032.76C1033.21 608.752 1033.49 611.707 1033.6 614.733C1033.63 615.573 1033.64 616.416 1033.64 617.264Z" fill="#FF2E2E"/>
<path d="M1033.5 620.824C1033.4 620.416 1033.56 621.536 1033.54 621.113C1033.52 620.692 1033.41 621.811 1033.49 621.387C1033.63 620.679 1033.25 621.788 1033.53 621.265L1033.74 620.948C1034.02 620.536 1033.35 621.42 1033.69 621.024C1033.92 620.748 1034.19 620.497 1034.46 620.253C1034.59 620.14 1034.72 620.031 1034.85 619.923C1035.32 619.532 1034.41 620.249 1034.92 619.869C1035.23 619.639 1035.55 619.421 1035.87 619.208C1036.65 618.7 1037.46 618.251 1038.28 617.821C1039.09 617.397 1039.93 617.013 1040.77 616.651C1040.28 616.861 1040.99 616.563 1041.03 616.547C1041.25 616.46 1041.46 616.376 1041.68 616.293C1042.18 616.101 1042.69 615.923 1043.2 615.752C1044.03 615.472 1044.88 615.229 1045.73 615.019C1046.13 614.92 1046.53 614.836 1046.93 614.759C1047.12 614.723 1047.31 614.691 1047.51 614.659C1047.97 614.584 1047.02 614.707 1047.75 614.629C1049.6 614.433 1050.86 614.689 1052.61 615.321C1053.37 615.595 1052.21 615.124 1052.93 615.453C1053.15 615.553 1053.36 615.669 1053.57 615.783C1053.99 616.005 1054.38 616.268 1054.77 616.543C1054.35 616.248 1054.95 616.701 1054.98 616.732C1055.15 616.88 1055.31 617.04 1055.48 617.2C1055.64 617.36 1055.79 617.528 1055.94 617.699C1056.12 617.921 1056.13 617.928 1055.97 617.719C1056.06 617.839 1056.15 617.96 1056.23 618.084C1056.49 618.452 1056.71 618.845 1056.91 619.245C1056.94 619.297 1057.23 619.975 1057.03 619.473C1057.11 619.685 1057.19 619.901 1057.26 620.117C1057.4 620.557 1057.5 621.009 1057.59 621.464C1057.73 622.217 1057.55 620.964 1057.63 621.736C1057.66 622.056 1057.67 622.379 1057.67 622.7C1057.71 624.487 1057.05 626.709 1056.31 628.296C1054.52 632.08 1051.49 634.453 1047.71 636.413C1045.77 637.424 1044.12 638.045 1041.9 638.768C1039.8 639.451 1037.67 640.001 1035.52 640.501C1032.54 641.199 1029.39 641.627 1026.53 642.756C1024.78 643.449 1023.25 644.361 1022.16 645.937C1020.97 647.667 1021.25 649.875 1022.03 651.688C1023.65 655.42 1027.56 656.321 1031.08 654.797C1032.46 654.201 1033.75 652.839 1034.05 651.345C1034.48 649.16 1033.26 647.463 1031.53 646.271C1030.41 645.497 1028.76 646.059 1028.11 647.168C1027.39 648.411 1027.89 649.817 1029.01 650.588C1029.62 651.007 1028.69 650.283 1029.17 650.724C1029.62 651.139 1028.91 650.296 1029.22 650.755C1029.52 651.201 1029.05 650.213 1029.2 650.693C1029.02 650.103 1029.17 650.263 1029.15 650.553C1029.18 649.792 1029.04 650.568 1029.32 649.915C1029.25 650.072 1028.96 650.455 1029.42 649.868L1029.12 650.185C1028.83 650.463 1029.58 649.889 1029 650.252C1028.86 650.339 1028.71 650.409 1028.56 650.479C1029.18 650.185 1028.67 650.417 1028.52 650.463C1028.36 650.516 1028.19 650.551 1028.02 650.584C1027.43 650.708 1028.6 650.539 1028 650.577C1027.82 650.588 1027.65 650.58 1027.47 650.571C1026.87 650.54 1028.04 650.684 1027.45 650.553C1027.31 650.523 1026.78 650.308 1027.4 650.579C1027.25 650.515 1026.65 650.08 1027.17 650.497C1027.02 650.383 1026.9 650.245 1026.78 650.107C1027.18 650.557 1026.81 650.076 1026.74 649.959C1026.63 649.759 1026.53 649.561 1026.43 649.357C1026.68 649.879 1026.44 649.308 1026.41 649.205C1026.36 649.061 1026.26 648.451 1026.36 649.183C1026.34 649.024 1026.34 648.863 1026.34 648.704C1026.34 648.153 1026.22 649.3 1026.33 648.777C1026.47 648.12 1026.15 649.073 1026.33 648.707C1026.4 648.579 1026.48 648.46 1026.56 648.343C1026.16 648.923 1026.43 648.532 1026.55 648.401L1026.9 648.093C1026.36 648.544 1026.78 648.196 1026.91 648.109C1027.19 647.921 1027.5 647.764 1027.8 647.615C1027.92 647.56 1028.48 647.324 1027.87 647.579C1028.09 647.483 1028.33 647.4 1028.56 647.317C1031.55 646.265 1034.79 645.825 1037.86 645.084C1042.28 644.019 1046.67 642.623 1050.7 640.487C1054.68 638.379 1058.25 635.296 1060.39 631.284C1062.53 627.267 1063.52 622.272 1061.77 617.933C1060.03 613.632 1056.21 610.753 1051.68 609.885C1047.96 609.171 1044.3 610.033 1040.79 611.309C1037.86 612.373 1034.92 613.709 1032.39 615.553C1030.3 617.081 1027.97 619.287 1028.68 622.153C1029.45 625.283 1034.27 623.956 1033.5 620.824Z" fill="#FF2E2E"/>
<path d="M1014.81 612.167C1014.81 635.989 1002.09 655.304 986.384 655.304C984.203 655.304 982.077 654.931 980.036 654.225C973.232 645.24 968.935 632.012 968.935 617.264C968.935 613.349 969.239 609.543 969.809 605.893H1014.52C1014.71 607.941 1014.81 610.035 1014.81 612.167Z" fill="#FF5555"/>
<path d="M984.413 647.089C983.405 647.089 982.455 646.519 981.82 645.632C980.52 643.819 979.504 641.796 978.609 639.757C977.437 637.085 976.4 634.356 975.605 631.545C974.103 626.231 972.961 620.185 974.465 614.74C974.821 613.448 976.031 612.583 977.321 612.583C977.573 612.583 977.829 612.616 978.083 612.685C979.627 613.109 980.564 614.759 980.139 616.303C980.012 616.757 979.904 617.216 979.824 617.681C979.817 617.764 979.756 618.235 979.749 618.34C979.731 618.575 979.712 618.809 979.701 619.041C979.648 620.287 979.687 621.533 979.808 622.773C979.836 623.053 979.864 623.333 979.897 623.615C979.896 623.6 979.896 623.593 979.896 623.593C979.899 623.593 979.993 624.265 980.008 624.356C980.111 624.981 980.223 625.605 980.352 626.227C980.633 627.58 980.965 628.921 981.355 630.248C981.739 631.559 982.159 632.857 982.633 634.137C982.875 634.795 983.125 635.449 983.392 636.096C983.445 636.224 983.477 636.3 983.487 636.325C983.52 636.404 983.555 636.483 983.588 636.561C983.688 636.787 983.787 637.013 983.889 637.237C984.745 639.119 985.693 640.98 986.9 642.664C987.836 643.971 987.129 645.935 985.844 646.687C985.372 646.964 984.887 647.089 984.413 647.089ZM979.913 623.739C979.915 623.755 979.917 623.772 979.92 623.788C979.917 623.771 979.915 623.753 979.913 623.739Z" fill="#FF8B60"/>
<mask id="mask0_59_3" style="mask-type:alpha" maskUnits="userSpaceOnUse" x="823" y="465" width="146" height="44">
<path d="M823 465.4C823 465.179 823.183 465 823.408 465H968.592C968.817 465 969 465.179 969 465.4V468.6C969 468.821 968.817 469 968.592 469H823.408C823.183 469 823 468.821 823 468.6V465.4Z" fill="#FF5821"/>
<path d="M823 473.4C823 473.179 823.183 473 823.408 473H968.592C968.817 473 969 473.179 969 473.4V476.6C969 476.821 968.817 477 968.592 477H823.408C823.183 477 823 476.821 823 476.6V473.4Z" fill="#FF5821"/>
<path d="M823 481.4C823 481.179 823.183 481 823.408 481H968.592C968.817 481 969 481.179 969 481.4V484.6C969 484.821 968.817 485 968.592 485H823.408C823.183 485 823 484.821 823 484.6V481.4Z" fill="#FF5821"/>
<path d="M823 489.4C823 489.179 823.183 489 823.408 489H968.592C968.817 489 969 489.179 969 489.4V492.6C969 492.821 968.817 493 968.592 493H823.408C823.183 493 823 492.821 823 492.6V489.4Z" fill="#FF5821"/>
<path d="M823 497.4C823 497.179 823.183 497 823.408 497H968.592C968.817 497 969 497.179 969 497.4V500.6C969 500.821 968.817 501 968.592 501H823.408C823.183 501 823 500.821 823 500.6V497.4Z" fill="#FF5821"/>
<path d="M823 505.4C823 505.179 823.183 505 823.408 505H968.592C968.817 505 969 505.179 969 505.4V508.6C969 508.821 968.817 509 968.592 509H823.408C823.183 509 823 508.821 823 508.6V505.4Z" fill="#FF5821"/>
</mask>
<g mask="url(#mask0_59_3)">
<path d="M941.564 508V466H950.384L960.164 502.3V466H965.504V508H957.944L946.844 469.84V508H941.564Z" fill="#FF5821"/>
<path d="M927.981 508V466H933.261V508H927.981Z" fill="#FF5821"/>
<path d="M896.692 508V466H901.972V483.76H913.912V466H919.192V508H913.912V487.72H901.972V508H896.692Z" fill="#FF5821"/>
<path d="M877.42 508V469.96H869.02V466H891.1V469.96H882.7V508H877.42Z" fill="#FF5821"/>
<path d="M858.138 508V466H863.418V508H858.138Z" fill="#FF5821"/>
<path d="M825.9 508V466H834.72L844.5 502.3V466H849.84V508H842.28L831.18 469.84V508H825.9Z" fill="#FF5821"/>
</g>
<mask id="mask1_59_3" style="mask-type:alpha" maskUnits="userSpaceOnUse" x="827" y="418" width="140" height="38">
<path d="M954.304 455V440.822L947.113 419.3H951.601L956.701 436.181L961.903 419.3H966.391L958.792 440.822V455H954.304Z" fill="white"/>
<path d="M926.39 419.3H935.06C938.222 419.3 940.585 420.031 942.149 421.493C943.713 422.921 944.495 425.182 944.495 428.276C944.495 429.976 944.172 431.54 943.526 432.968C942.914 434.362 942.132 435.382 941.18 436.028C942.506 436.742 943.594 437.813 944.444 439.241C945.328 440.669 945.77 442.301 945.77 444.137C945.77 447.265 944.988 449.866 943.424 451.94C941.894 453.98 938.851 455 934.295 455H926.39V419.3ZM934.091 434.243C936.131 434.243 937.712 433.733 938.834 432.713C939.956 431.659 940.517 430.146 940.517 428.174C940.517 426.236 939.973 424.842 938.885 423.992C937.797 423.108 936.199 422.666 934.091 422.666H930.878V434.243H934.091ZM934.04 451.634C936.522 451.634 938.375 451.056 939.599 449.9C940.857 448.71 941.486 446.84 941.486 444.29C941.486 442.012 940.755 440.346 939.293 439.292C937.831 438.238 936.097 437.711 934.091 437.711H930.878V451.634H934.04Z" fill="white"/>
<path d="M896.906 455V419.3H912.461V422.768H901.394V434.192H910.37V437.66H901.394V451.532H912.971V455H896.906Z" fill="white"/>
<path d="M872.351 419.3H881.225C884.319 419.3 886.716 420.082 888.416 421.646C890.116 423.21 890.966 425.505 890.966 428.531V445.769C890.966 448.795 890.116 451.09 888.416 452.654C886.716 454.184 884.319 454.966 881.225 455H872.351V419.3ZM881.225 451.532C882.789 451.532 884.047 451.09 884.999 450.206C885.985 449.288 886.478 448.081 886.478 446.585V427.715C886.478 426.219 885.985 425.029 884.999 424.145C884.047 423.227 882.789 422.768 881.225 422.768H876.89V451.532H881.225Z" fill="white"/>
<path d="M856.706 455.357C853.544 455.357 851.13 454.558 849.464 452.96C847.798 451.328 846.965 449.067 846.965 446.177V428.123C846.965 425.233 847.798 422.989 849.464 421.391C851.13 419.759 853.544 418.943 856.706 418.943C859.902 418.943 862.333 419.759 863.999 421.391C865.665 422.989 866.498 425.233 866.498 428.123V446.177C866.498 449.067 865.665 451.328 863.999 452.96C862.333 454.558 859.902 455.357 856.706 455.357ZM856.706 451.991C858.202 451.991 859.46 451.566 860.48 450.716C861.5 449.832 862.01 448.608 862.01 447.044V427.256C862.01 425.692 861.5 424.485 860.48 423.635C859.46 422.751 858.202 422.309 856.706 422.309C855.21 422.309 853.952 422.751 852.932 423.635C851.946 424.485 851.453 425.692 851.453 427.256V447.044C851.453 448.608 851.946 449.832 852.932 450.716C853.952 451.566 855.21 451.991 856.706 451.991Z" fill="white"/>
<path d="M836.934 455C833.84 455 831.443 454.218 829.743 452.654C828.043 451.09 827.193 448.795 827.193 445.769V428.531C827.193 425.505 828.043 423.21 829.743 421.646C831.443 420.082 833.84 419.3 836.934 419.3H843.768V422.666H836.934C835.37 422.666 834.095 423.125 833.109 424.043C832.157 424.927 831.681 426.117 831.681 427.613V446.687C831.681 448.183 832.157 449.39 833.109 450.308C834.095 451.192 835.37 451.634 836.934 451.634H843.768V455H836.934Z" fill="white"/>
</mask>
<g mask="url(#mask1_59_3)">
<path d="M823 419.4C823 419.179 823.179 419 823.4 419H965.6C965.821 419 966 419.179 966 419.4V422.6C966 422.821 965.821 423 965.6 423H823.4C823.179 423 823 422.821 823 422.6V419.4Z" fill="#889F33"/>
<path d="M823 425.4C823 425.179 823.179 425 823.4 425H965.6C965.821 425 966 425.179 966 425.4V428.6C966 428.821 965.821 429 965.6 429H823.4C823.179 429 823 428.821 823 428.6V425.4Z" fill="#889F33"/>
<path d="M823 432.4C823 432.179 823.179 432 823.4 432H965.6C965.821 432 966 432.179 966 432.4V435.6C966 435.821 965.821 436 965.6 436H823.4C823.179 436 823 435.821 823 435.6V432.4Z" fill="#889F33"/>
<path d="M823 440.4C823 440.179 823.179 440 823.4 440H965.6C965.821 440 966 440.179 966 440.4V443.6C966 443.821 965.821 444 965.6 444H823.4C823.179 444 823 443.821 823 443.6V440.4Z" fill="#889F33"/>
<path d="M823 447.4C823 447.179 823.179 447 823.4 447H965.6C965.821 447 966 447.179 966 447.4V450.6C966 450.821 965.821 451 965.6 451H823.4C823.179 451 823 450.821 823 450.6V447.4Z" fill="#889F33"/>
<path d="M823 453.4C823 453.179 823.179 453 823.4 453H965.6C965.821 453 966 453.179 966 453.4V456.6C966 456.821 965.821 457 965.6 457H823.4C823.179 457 823 456.821 823 456.6V453.4Z" fill="#889F33"/>
</g>
</svg>
